<?xml version="1.0" encoding="UTF-8"?>
<svg xmlns="http://www.w3.org/2000/svg" version="1.1" viewBox="0 0 2000 1414" width="2000" height="1414" shape-rendering="geometricPrecision" text-rendering="geometricPrecision" image-rendering="optimizeQuality" preserveAspectRatio="xMidYMid meet" xmlns:xlink="http://www.w3.org/1999/xlink">
  <!-- Generator: Adobe Illustrator 29.1.0, SVG Export Plug-In . SVG Version: 2.1.0 Build 142)  -->
  <defs>
    <style>
      .st0 {
        fill: #ffffff;
      }


    </style>
  </defs>
  <g id="muri">
    <path class="st0" d="M913.2,773.9c-.3,0-.5,0-.8-.2l-15.7-9.3c-.4-.2-.7-.6-.7-1.1s.1-.9.4-1.2c.5-.5,1.3-.6,1.9-.2l15.6,9.3c.7.4.9,1.3.5,2.1-.3.5-.8.7-1.3.7Z"/>
    <path class="st0" d="M918.6,777.1c-.8,0-1.5-.7-1.5-1.5s.7-1.5,1.5-1.5,1.5.7,1.5,1.5h0c0,.9-.7,1.5-1.5,1.5Z"/>
    <path class="st0" d="M918.9,774.8c0,0-.1,0-.2,0-.8-.1-1.4-.9-1.3-1.7l3.4-24.6c.1-.8.9-1.4,1.7-1.3.8.1,1.4.9,1.3,1.7l-2.9,21.4c-.2,1.1-.4,2.2-.5,3.2-.1.7-.7,1.3-1.5,1.3Z"/>
    <path class="st0" d="M1000,1407.8c-.3,0-.5,0-.8-.2l-606.2-350c-.5-.3-.7-.8-.8-1.3,0-.5.3-1,.7-1.3l474.1-276c.5-.3,1-.3,1.5,0l4.3,2.3,5.1-1.9.2-6.1c0-.5.3-1,.7-1.2l17.8-10.3c.5-.3,1.1-.3,1.5,0l21,12.5c.5.3.7.8.7,1.3s0,.2,0,.2c-1.3,9.4-1.9,16.5-2.1,18.4,0,.4.2.8.5,1,0,0,.2.1.3.2l16.4,8.8c.5.3,1.1,0,1.4-.4l.5-.9c.8-1.5,2.5-2.2,4.1-2,1.7.3,3,1.5,3.3,3.2l.7,3.6c0,.2.2.4.4.6l9.6,7.8c.1.1.3.2.4.3,1.7,1.8,3.6,3.4,4.2,3.6,1.4.3,7.8,1.2,8.7,1.3,1.3,0,12.1,2.6,13.1,2.8,1.8.5,6.8,6.6,8.1,8.8.5,0,1.6,0,2.2-.1.7,0,1.3-.1,1.8-.1,1.3,0,2.5,1.1,4.8,6.2.1.2.3.4.6.5l21.7,7.3c1.3.4,2.3,1.5,2.6,2.9l2.2,9.6c0,.3.2.5.5.6,3.8,2.4,7.1,4.3,8.4,4.9.4-.5,1.2-1.5,2.5-3.6.6-1,1.7-1.7,2.9-1.9,1.2-.2,2.4.2,3.3,1.1,1.2,1.1,4.9,4.6,5.6,5,1,.5,5.9,3.1,5.9,3.2.6.3,1.1.8,1.5,1.4l2.9,4.7c.1.2.3.3.4.4l14.4,6.8c.4.2.7,0,.9,0s.4-.3.6-.7l7.1-26.9c.2-.8,1-1.2,1.8-1.1.8.2,1.3.9,1.2,1.7l-4.7,31.9c0,.4.1.8.5,1l9.6,5.6c.5.3.8.8.7,1.3l-.5,19.3,5.4,2.9,5.1-1.9.9-23.3c0-.2,0-.4.1-.6l1.3-4.1c0-.1,0-.3,0-.5l-1.4-27.5c0-.8.6-1.5,1.3-1.6.8,0,1.5.5,1.6,1.3l4.2,27.6c0,.5.5.7.6.8.2,0,.6.2,1-.1l3.7-2.7c.5-.4,1-.6,1.5-.7l10.5-2.6s0,0,.1,0c0,0,.1,0,.2,0l8.7-5.7c.5-.3,1-.5,1.6-.6l10-1.7c.2,0,.3-.1.5-.2l8-6.7c.2-.2.3-.4.4-.6,1.2-8.9,2.1-9.4,2.8-9.8.5-.3,1.1-.3,1.6,0,1.6.8,3.2,1.8,4.7,2.9.3.2.6.3.9.2.2,0,.5-.2.6-.6l.7-2c.4-1.2,1.4-2.2,2.6-2.5,1.2-.4,2.5-.2,3.6.6l.6.4c.3.2.7.2.8.2.2,0,.5-.1.7-.5l1.8-3c0-.1.1-.3.1-.4l.6-4.8c0-.5.4-.9.8-1.2l1.8-.9c.4-.2.9-.2,1.3,0,.4.2.7.6.8,1.1l1.6,8.6c0,.4.3.6.5.7.3.2.6.2.9,0h.3c.2-.2.4-.3.5-.5l3.1-5.1c.3-.5.6-.9,1.1-1.2l5.2-3.5c.3-.2.5-.5.5-.9v-1.5c0-1.9,1.3-3.5,3.1-3.9,1.8-.4,3.6.4,4.5,2.1l.6,1.1c.2.4.6.5.8.5.2,0,.6,0,.9-.4l.5-.6c0,0,.1-.1.1-.1l4.1-6.7c.8-1.4,2.5-2.2,4.1-1.9l1.3.2c.7.1,1.3.8,1.3,1.5l-.4,12.9,5.3,2.9,5.1-1.9.3-8.3c0-.5.3-1,.8-1.3.5-.3,1-.2,1.5,0l13.4,7.7c.5.3.8.8.8,1.3s0,1,.1,1.5c0,.4,0,.8-.3,1.2l.7,17.3c.3,8.2,5,15.6,12.2,19.4l16.3,8.6c9.2,4.9,20.4,3.8,28.6-2.7,0,0,0,0,.1,0l9.4-6.2c.5-.3,1.1-.3,1.6,0l40.6,23.4c.5.3.7.8.8,1.3,0,.5-.3,1-.7,1.3l-204.7,119.3,224.9,128.4,204.8-119.4c.5-.3,1-.3,1.5,0l26.3,15.2c.5.3.8.8.8,1.3s-.3,1-.8,1.3l-606.2,350c-.2.1-.5.2-.8.2ZM396.8,1056.3l603.2,348.3,603.2-348.3-23.3-13.5-204.8,119.4c-.5.3-1,.3-1.5,0l-228-130.1c-.5-.3-.8-.8-.8-1.3,0-.5.3-1,.7-1.3l204.7-119.3-37.5-21.7-8.6,5.7c-9,7.2-21.5,8.4-31.8,3l-16.3-8.6c-8.2-4.3-13.4-12.7-13.8-21.9l-.7-18.2c0-.3,0-.6.2-.8,0,0,0,0,0-.1l-10.5-6.1-.3,6.8c0,.6-.4,1.1-1,1.3l-6.7,2.5c-.4.2-.9.1-1.2,0l-6.8-3.6c-.5-.3-.8-.8-.8-1.4l.4-12.6c-.4,0-.8.1-1,.5l-4.1,6.8s-.2.3-.4.5l-.5.6c-.9,1.1-2.2,1.6-3.5,1.5-1.4-.1-2.5-.9-3.2-2.1l-.6-1.1c-.3-.6-.9-.6-1.1-.5-.2,0-.8.2-.8,1v1.6c0,1.4-.7,2.6-1.8,3.3l-5.1,3.5c-.1,0-.2.2-.3.3l-3.1,5c-.4.7-1.1,1.3-2,1.7h-.3c-1.1.5-2.3.4-3.4-.2-1-.6-1.7-1.6-2-2.8l-.8-4.5-.2,1.6c0,.6-.3,1.1-.5,1.6l-1.8,3c-.6,1-1.6,1.7-2.7,1.9-1.1.2-2.3,0-3.2-.7l-.6-.4c-.3-.2-.6-.3-.9-.2-.3.1-.6.3-.7.6l-.7,2c-.4,1.2-1.4,2.2-2.6,2.5-1.2.4-2.6.2-3.6-.6-1-.7-2.1-1.4-3.2-2-.3,1.1-.8,3.2-1.2,6.8-.1,1-.6,1.8-1.4,2.5l-8,6.7c-.5.4-1.2.8-1.9.9l-10,1.7c-.1,0-.2,0-.4.2l-8.7,5.7c-.4.3-.8.5-1.3.5l-10.5,2.5c-.1,0-.3,0-.4.2l-3.7,2.7c-1.2.8-2.6,1-3.9.5-1.1-.5-1.9-1.4-2.3-2.5,0,.2,0,.4-.2.6l-1.3,4-1,24c0,.6-.4,1.1-1,1.3l-6.7,2.5c-.4.2-.9.1-1.2,0l-6.8-3.7c-.5-.3-.8-.8-.8-1.4l.5-19.3-8.8-5.1c-1.4-.8-2.2-2.4-2-4.1l.7-5-.2.7c-.3,1.2-1.1,2.1-2.2,2.6s-2.3.5-3.4,0l-14.4-6.8c-.7-.3-1.3-.9-1.7-1.6l-2.8-4.7c-.1-.2-.2-.3-.4-.4-1.8-1-5.3-2.9-5.9-3.1-.4-.2-1.1-.7-6.3-5.5-.3-.3-.7-.3-.8-.3-.2,0-.5.1-.7.5-3,4.9-3.9,5.2-4.8,5.2-.5,0-1.3,0-10.3-5.6-.9-.5-1.5-1.4-1.8-2.5l-2.2-9.6c0-.3-.3-.6-.6-.7l-21.7-7.3c-1-.3-1.9-1.1-2.4-2.1-1.4-3.1-2.2-4.1-2.5-4.4-.3,0-.7,0-1.1.1-2.1.2-4.5.5-5.1-1.4-.6-1.2-5.3-6.7-6.4-7.4-1.7-.4-11.4-2.6-12.4-2.7-1.1,0-7.5-1-9.2-1.4-1.8-.5-4.5-3.2-5.6-4.4,0,0,0,0,0,0l-9.6-7.9c-.7-.6-1.2-1.4-1.4-2.3l-.7-3.6c-.1-.7-.7-.8-.9-.8-.2,0-.7,0-1,.5l-.6,1c-1.1,1.9-3.5,2.6-5.4,1.5l-16.7-8.9c-.1,0-.3-.2-.4-.3-1.2-.8-1.8-2.2-1.7-3.6.1-1.9.7-8.6,2-17.6l-19.4-11.5-16.3,9.5-.3,6.3c0,.6-.4,1.1-1,1.3l-6.7,2.5c-.4.1-.9.1-1.2,0l-4.2-2.3-471.2,274.2ZM1048.6,865.2s0,0,0,0c0,0,0,0,0,0ZM1034.1,865h0ZM1159.3,858.3s0,0,0,0c0,0,0,0,0,0ZM993.1,835.5h0ZM987,834.3s0,0,0,0c0,0,0,0,0,0ZM989.8,833.2c0,.1,0,.2.1.3,0,0,0-.2-.1-.3ZM980.6,826.9h0s0,0,0,0Z"/>
    <path class="st0" d="M997.9,707.4c-.6,0-1.2-.4-1.4-1-.3-.7,0-1.5.7-1.8l.7-.4c.4-.2,1-.2,1.4,0h.3c.5.4.9,1,.8,1.7s-.5,1.1-1.1,1.3c-.2,0-.3,0-.5.1-.2,0-.4,0-.5.1-.1,0-.2,0-.3,0Z"/>
    <path class="st0" d="M1179.9,847.6c-.3,0-.6,0-.9-.3-.5-.3-.7-.9-.6-1.4l.8-6.5c0-.7.7-1.3,1.4-1.3.7,0,1.4.5,1.5,1.2l1,5.5c.1.7-.2,1.3-.8,1.6l-1.8.9c-.2.1-.4.2-.7.2Z"/>
    <path class="st0" d="M1258.7,428.4c-2.9,0-5.8-.5-8.8-1.3-1-.3-2-.7-2.9-1-2.7-1.1-4.8-2.4-6.1-3.2-.3-.2-.5-.3-.7-.5l-.2-.2c0,0-.2-.1-.2-.2,0,0,0,0,0,0h0s0,0,0,0c0,0-.2-.1-.2-.2-.5-.5-.6-1.4-.1-2,.5-.6,1.3-.7,2-.3,7.6,4.9,15,6.8,22.1,5.4h0s0,0,0,0h0c.8-.2,1.6.4,1.7,1.2.2.8-.4,1.6-1.2,1.8,0,0,0,0,0,0l-1.1.2c-.5,0-1,.2-1.5.2-1,0-1.9.1-2.9.1Z"/>
    <path class="st0" d="M1266.4,427.1c-.6,0-1.2-.4-1.4-1-.2-.8.2-1.6,1-1.9,2.6-.8,5-2.1,7.3-3.8.6-.5,1.5-.4,2.1.2.5.6.4,1.5-.2,2.1-.1.1-3.1,2.8-8.3,4.4-.1,0-.3,0-.4,0Z"/>
    <path class="st0" d="M1454.4,861.3c-2.5,0-5-1.7-6.3-4.5-1-2.1.5-4.5,3.7-6.1,3.3-1.6,6.1-1.2,7.1.9,0,0,0,.1,0,.2,1.6,3.7.6,7.6-2.4,9,0,0,0,0,0,0-.7.3-1.4.5-2.2.5ZM1456,859.4h0,0ZM1455.5,852.7c-.6,0-1.4.2-2.5.7-1.7.8-2.4,1.9-2.3,2.1,1,2.1,3.1,3.3,4.5,2.6,1.5-.7,1.9-3,.9-5.2h0c0-.1-.3-.2-.7-.2Z"/>
    <path class="st0" d="M1466.9,859.8c-.1,0-.2,0-.4,0-2.1-.1-4.1-1.1-5.7-2.8-2.1-2.3-3.2-5.7-3-9.2,0-1.7,1.1-3.1,2.9-4,3.6-1.8,9.8-1.5,13.2.7,1.7,1.1,2.6,2.6,2.5,4.3-.3,6.2-4.5,11.1-9.5,11.1ZM1466.5,845.6c-1.7,0-3.3.3-4.4.9-1.2.6-1.3,1.3-1.3,1.5-.1,2.7.7,5.3,2.2,7,1,1.1,2.3,1.8,3.6,1.8,3.5.2,6.5-3.5,6.7-8.2h0c0-.2,0-.9-1.1-1.6-1.4-.9-3.6-1.4-5.8-1.4Z"/>
    <path class="st0" d="M1476.6,864.2c-1.5,0-2.8-.5-3.8-1.5-2.4-2.3-2.1-6.5.7-9.4,1.6-1.7,4.5-1.1,7,1.4,2.5,2.4,3.1,5.1,1.7,6.8,0,0,0,.1-.2.2-1.5,1.6-3.5,2.5-5.5,2.6,0,0,0,0-.1,0ZM1476,855.4c0,0-.2,0-.2,0-1.6,1.7-2,4-.8,5.2.5.5,1.3.6,1.8.6,1.1,0,2.3-.6,3.2-1.5,0,0,0,0,.1-.1.2-.2-.1-1.3-1.5-2.7-1.2-1.1-2.2-1.5-2.6-1.5ZM1481.1,860.7h0,0Z"/>
    <path class="st0" d="M972.4,708.8h0c-.7,0-1.3-.5-1.4-1.2,0-.2,0-.4,0-.6,0,0,0-.1,0-.2,0-.5.3-1.1.8-1.3h.2c.6-.5,1.4-.4,1.9,0,.3.3.5.7.5,1.1s0,.5-.2.8c0,0,0,0,0,0h0s0,0,0,.2c-.2.7-.8,1.2-1.5,1.2ZM978.3,706.6c-.2,0-.3,0-.5,0-.1,0-.6-.1-1.9,0-.7,0-1.4-.3-1.6-1,0-.1,0-.3,0-.5,0-.5.3-1.1.8-1.3.6-.3,1.3-.7,1.9-1,.4-.2.9-.2,1.4,0,.4.2.8.6.8,1,0,0,0,.2.2.3.3.3.4.7.4,1.1s0,.5-.2.8c-.3.5-.8.7-1.3.7ZM903.9,694.1c-.2,0-.4,0-.5,0-.4-.2-.8-.5-.9-.9-.2-.7-.4-1.6-.5-2.5,0-.8.5-1.5,1.4-1.6.8,0,1.5.5,1.6,1.3,0,.6.2,1.1.4,1.7.3.7,0,1.5-.6,1.9h-.1c-.2.2-.5.3-.8.3ZM997.7,680.6c-.7,0-1.3-.5-1.5-1.1v-.3c-.3-.7-.2-1.5,0-2.2.3-.7,1-1.1,1.7-1,.7.1,1.2.8,1.2,1.5v1.7c0,.8-.6,1.4-1.3,1.5,0,0-.1,0-.2,0ZM957.2,664.7c-.5,0-1-.2-1.2-.7-.4-.6-.3-1.5.3-2,2.1-1.7,4.6-3.1,7.4-4.1.7-.3,1.5,0,1.9.8.3.7,0,1.5-.6,1.9l-6.9,3.8c-.2.1-.5.2-.7.2Z"/>
    <path class="st0" d="M872.9,784.5c-.3,0-.6,0-.9-.3-.4-.3-.6-.8-.6-1.3l1.4-33.7h0c0-.7.3-1.2.8-1.4.5-.3,1.1-.2,1.5,0,.3.2.5.4.8.5l5.5,3.3c.5.3.8.8.7,1.4l-1.1,27.5c0,.6-.4,1.1-1,1.3l-6.7,2.5c-.2,0-.3,0-.5,0ZM875.7,751.8l-1.2,29,3.6-1.3,1.1-25.6-3.5-2.1Z"/>
    <path class="st0" d="M879.8,774.9c-.3,0-.5,0-.8-.2-.5-.3-.7-.8-.7-1.3l.9-20.4c0-.5.3-1,.8-1.3.5-.2,1-.2,1.5,0l16.9,10.1c.5.3.7.8.7,1.3,0,.5-.3,1-.7,1.3l-17.8,10.3c-.2.1-.5.2-.8.2ZM882.1,755.6l-.6,15.1,13.2-7.7-12.6-7.5Z"/>
    <path class="st0" d="M1374.3,1162.5c-.3,0-.5,0-.7-.2l-228-130.1c-.5-.3-.8-.8-.8-1.3,0-.5.3-1,.7-1.3l207-120.6c.5-.3,1-.3,1.5,0l226,130.5.5.3c.5.3.8.8.8,1.3,0,.5-.3,1-.7,1.3l-205.6,119.9c-.2.1-.5.2-.8.2ZM1149.4,1030.9l224.9,128.4,202.6-118.1-223.6-129.1-1.7,1-202.2,117.9ZM1356.3,1049.1c-.1,0-.2,0-.3,0-.4,0-.7-.3-1-.6l-2.1-3.2c-.5-.7-.3-1.6.4-2.1l26.2-17.3c.7-.5,1.6-.3,2.1.4l2.1,3.2c.2.3.3.7.2,1.1,0,.4-.3.7-.6,1l-26.2,17.3c-.2.2-.5.2-.8.2ZM1356.3,1044.9l.5.7,23.7-15.7-.5-.7-23.7,15.7ZM1342.1,1042.6c-.5,0-1-.2-1.3-.7l-2.1-3.2c-.2-.3-.3-.7-.2-1.1,0-.4.3-.7.6-1l26.2-17.3c.3-.2.7-.3,1.1-.2.4,0,.7.3,1,.6l2.1,3.2c.5.7.3,1.6-.4,2.1l-26.2,17.3c-.3.2-.5.2-.8.2ZM1342.1,1038.4l.5.7,23.7-15.7-.5-.7-23.7,15.7ZM1328,1035.6c-.5,0-1-.2-1.3-.7l-2.1-3.2c-.2-.3-.3-.7-.2-1.1s.3-.7.6-1l26.2-17.3c.3-.2.7-.3,1.1-.2.4,0,.7.3,1,.6l2.1,3.2c.5.7.3,1.6-.4,2.1l-26.2,17.3c-.3.2-.5.2-.8.2ZM1327.9,1031.3l.5.7,23.7-15.7-.4-.7-23.7,15.7Z"/>
  </g>
  <g id="doccia">
    <path class="st0" d="M1435.3,716.9c-9.9,0-18.6-.9-25.8-2.1-21.1-3.6-33.9-10.3-34.4-10.5-.5-.3-.8-.8-.8-1.3v-11.9c0-.8.7-1.5,1.5-1.5s1.5.7,1.5,1.5c0,8.3,23.3,17.1,58,17.1s56.4-8.4,57.9-16.3c.2-.8.9-1.3,1.7-1.2.8.1,1.4.8,1.3,1.6l-1,12.2c0,.6-.4,1.1-1,1.3-21.9,8.4-42.1,11.1-59,11.1ZM1377.3,702c6.7,3.2,54.6,24.2,115,1.4l.5-5.3c-8.4,7.8-30.8,13.1-57.4,13.1s-49.6-5-58-13.7v4.5Z"/>
    <path class="st0" d="M1435.3,711.1c-30,0-61-7.5-61-20.1s16.4-16.5,41.9-19.1c.4,0,.8,0,1.2.4.3.3.5.7.5,1.1v8.1c3.2,2,17.4,9.7,34.3,0v-8.2c0-.4.2-.8.5-1.1.3-.3.7-.4,1.2-.4,25.9,2.6,42.6,10.2,42.6,19.2s0,.9-.1,1.4c-2.1,10.7-28.3,18.7-60.9,18.7ZM1414.8,675c-21.8,2.5-37.5,9.2-37.5,16s23.3,17.1,58,17.1,56.4-8.4,57.9-16.3c0-.3,0-.6,0-.9,0-6.9-16-13.6-38.3-16.1v7.4c0,.5-.3,1-.7,1.3-20.8,12.6-38.8,0-38.9,0-.4-.3-.6-.7-.6-1.2v-7.3Z"/>
    <path class="st0" d="M1435,689.2c-11.5,0-19.5-5.6-19.6-5.7-.4-.3-.6-.7-.6-1.2v-20.5c0-.8.7-1.5,1.5-1.5h.7c.8,0,1.5.7,1.5,1.5,0,2.2,6.5,5.5,16.8,5.5s16.5-3.1,16.8-5.3c.1-.8.8-1.4,1.6-1.3.8,0,1.4.7,1.4,1.5v20.1c0,.5-.3,1-.7,1.3-6.9,4.2-13.6,5.6-19.3,5.6ZM1417.8,681.5c3.2,2,17.4,9.7,34.3,0v-15c-3.7,2.5-10.4,3.8-16.8,3.8s-14-1.5-17.5-4.4v15.6Z"/>
    <path class="st0" d="M1435.3,670.3c-9.6,0-19.8-3-19.8-8.5s5.3-7,13.8-8.1c.4,0,.8,0,1.2.3.3.3.5.7.5,1.1,0,1,0,2,0,3h8.7c0-.7,0-1.7-.1-2.9,0-.4.2-.9.5-1.2.3-.3.8-.4,1.2-.4,8.5,1.1,13.8,4.2,13.8,8.1s0,.4,0,.6c-.8,5.1-10.5,7.8-19.7,7.8ZM1428.1,656.9c-6,1-9.6,3.2-9.6,4.9s6.5,5.5,16.8,5.5,16.5-3.1,16.8-5.3c0,0,0-.1,0-.2h0c0-1.6-3.5-3.8-9.4-4.8,0,1.7.2,2.6.2,2.6,0,.4-.1.8-.4,1.1-.3.3-.7.5-1.1.5h-11.7c-.8,0-1.5-.6-1.5-1.5v-.4c0-.8,0-1.6,0-2.4Z"/>
    <path class="st0" d="M1441.4,661.2h-11.7c-.8,0-1.5-.6-1.5-1.5v-.4c0-1.4-.1-2.8-.1-4.1-1-43.6,7-72.7,23.8-86.5,12.8-10.6,25.9-7.8,26.4-7.7.7.2,1.2.8,1.2,1.5v13.2c0,.4-.2.8-.5,1.1-.3.3-.7.4-1.1.4-7.2-.6-13.5,1.6-18.5,6.4-17.1,16.3-17.1,59-16.6,71.6.1,2.8.2,4.4.2,4.4,0,.4-.1.8-.4,1.1-.3.3-.7.5-1.1.5ZM1431.2,658.2h8.7c0-.7,0-1.7-.1-2.9-1.7-50,11.7-68.4,17.6-73.9,5.3-5.1,11.8-7.5,19.2-7.3v-10.3c-3.3-.4-13.2-.6-22.8,7.3-20,16.5-23.3,54.8-22.6,84.1,0,1,0,2,0,3Z"/>
    <path class="st0" d="M1466.9,859.8c-.1,0-.2,0-.4,0-2.1-.1-4.1-1.1-5.7-2.8-2.1-2.3-3.2-5.7-3-9.2,0-1.7,1.1-3.1,2.9-4,3.6-1.8,9.8-1.5,13.2.7,1.7,1.1,2.6,2.6,2.5,4.3-.3,6.2-4.5,11.1-9.5,11.1ZM1466.5,845.6c-1.7,0-3.3.3-4.4.9-1.2.6-1.3,1.3-1.3,1.5-.1,2.7.7,5.3,2.2,7,1,1.1,2.3,1.8,3.6,1.8,3.5.2,6.5-3.5,6.7-8.2h0c0-.2,0-.9-1.1-1.6-1.4-.9-3.6-1.4-5.8-1.4Z"/>
    <path class="st0" d="M1454.4,861.3c-2.5,0-5-1.7-6.3-4.5-1-2.1.5-4.5,3.7-6.1,3.3-1.6,6.1-1.2,7.1.9,0,0,0,.1,0,.2,1.6,3.7.6,7.6-2.4,9,0,0,0,0,0,0-.7.3-1.4.5-2.2.5ZM1456,859.4h0,0ZM1455.5,852.7c-.6,0-1.4.2-2.5.7-1.7.8-2.4,1.9-2.3,2.1,1,2.1,3.1,3.3,4.5,2.6,1.5-.7,1.9-3,.9-5.2h0c0-.1-.3-.2-.7-.2Z"/>
    <path class="st0" d="M1476.6,864.2c-1.5,0-2.8-.5-3.8-1.5-2.4-2.3-2.1-6.5.7-9.4,1.6-1.7,4.5-1.1,7,1.4,2.5,2.4,3.1,5.1,1.7,6.8,0,0,0,.1-.2.2-1.5,1.6-3.5,2.5-5.5,2.6,0,0,0,0-.1,0ZM1476,855.4c0,0-.2,0-.2,0-1.6,1.7-2,4-.8,5.2.5.5,1.3.6,1.8.6,1.1,0,2.3-.6,3.2-1.5,0,0,0,0,.1-.1.2-.2-.1-1.3-1.5-2.7-1.2-1.1-2.2-1.5-2.6-1.5ZM1481.1,860.7h0,0Z"/>
    <path class="st0" d="M1328,1035.6c-.5,0-1-.2-1.3-.7l-2.1-3.2c-.2-.3-.3-.7-.2-1.1s.3-.7.6-1l26.2-17.3c.3-.2.7-.3,1.1-.2.4,0,.7.3,1,.6l2.1,3.2c.5.7.3,1.6-.4,2.1l-26.2,17.3c-.3.2-.5.2-.8.2ZM1327.9,1031.3l.5.7,23.7-15.7-.4-.7-23.7,15.7Z"/>
    <path class="st0" d="M1342.1,1042.6c-.5,0-1-.2-1.3-.7l-2.1-3.2c-.2-.3-.3-.7-.2-1.1s.3-.7.6-1l26.2-17.3c.3-.2.7-.3,1.1-.2.4,0,.7.3,1,.6l2.1,3.2c.5.7.3,1.6-.4,2.1l-26.2,17.3c-.3.2-.5.2-.8.2ZM1342.1,1038.4l.5.7,23.7-15.7-.5-.7-23.7,15.7Z"/>
    <path class="st0" d="M1356.3,1049.1c-.1,0-.2,0-.3,0-.4,0-.7-.3-1-.6l-2.1-3.2c-.5-.7-.3-1.6.4-2.1l26.2-17.3c.7-.5,1.6-.3,2.1.4l2.1,3.2c.2.3.3.7.2,1.1,0,.4-.3.7-.6,1l-26.2,17.3c-.2.2-.5.2-.8.2ZM1356.3,1044.9l.5.7,23.7-15.7-.5-.7-23.7,15.7Z"/>
  </g>
  <g id="bidet">
    <path class="st0" d="M1286,900.7c-4.6,0-9.3-1.1-13.6-3.4l-16.3-8.6c-8.2-4.3-13.4-12.7-13.8-21.9l-.7-18.2c0-.8.6-1.5,1.4-1.6h.3c.8,0,1.5.4,1.6,1.2.6,3.2,3.3,6.8,7.8,10.3,10.2,8.1,22.5,12.5,35.7,12.7,13.1.3,26.2-3.8,36.8-11.5,12.5-9.1,19.9-19.9,19.9-20,.4-.6,1.1-.8,1.7-.6.6.2,1.1.9,1,1.5l-2,25.4c0,.5-.3.9-.7,1.1l-40.9,27c-5.3,4.2-11.7,6.4-18.2,6.4ZM1244.8,854.9l.5,11.7c.3,8.2,5,15.6,12.2,19.4l16.3,8.6c9.2,4.9,20.4,3.8,28.6-2.7,0,0,0,0,.1,0l40.3-26.6,1.6-19.6c-3.4,4.1-9.3,10.6-17.5,16.6-11.1,8.1-24.8,12.4-38.6,12.1-13.8-.3-26.8-4.9-37.5-13.4-2.5-2-4.5-4-6-5.9Z"/>
    <path class="st0" d="M1289.7,874.3c-.5,0-1,0-1.5,0-13.8-.3-26.8-4.9-37.5-13.4-5.2-4.1-8.2-8.2-8.9-12.2-.1-.6-.2-1.3-.2-2,0-4.1,2.5-7.9,7.3-11.4,4.3-3.1,43.6-24.8,45.3-25.7.5-.3,1-.2,1.5,0l51.3,29.7c.4.2.6.6.7,1s0,.8-.2,1.2c-.3.5-7.7,11.3-20.6,20.7-10.7,7.8-23.8,12.1-37.2,12.1ZM1295,812.6c-5.5,3.1-40.3,22.3-44.2,25.1-4,2.9-6,5.9-6,9,0,.5,0,1,.1,1.4.6,3.2,3.3,6.8,7.8,10.4,10.2,8.1,22.5,12.5,35.7,12.7,13.1.3,26.2-3.8,36.8-11.5,9.9-7.2,16.6-15.5,19-18.7l-49.2-28.5Z"/>
  </g>
  <g id="letto">
    <g>
      <path class="st0" d="M1096.1,919.9c-.2,0-.5,0-.7-.2l-6.8-3.7c-.5-.3-.8-.8-.8-1.4l.6-20.2c0-.5.3-1,.8-1.3.5-.3,1-.3,1.5,0l7,4.1c.5.3.8.8.7,1.4l-.8,19.8c0,.5-.3,1-.8,1.2-.2.1-.5.2-.7.2ZM1090.8,913.8l3.8,2.1.7-16.5-4-2.3-.5,16.8Z"/>
      <path class="st0" d="M1096.1,919.9c-.3,0-.6,0-.9-.3-.4-.3-.6-.8-.6-1.3l.8-19.8c0-.5.3-1,.8-1.3.5-.3,1-.2,1.5,0l1.2.7c.4.2.7.1.9,0,.2,0,.5-.2.6-.7l2-6.2c.2-.7.9-1.2,1.7-1,.7.1,1.3.8,1.2,1.5l-1,24.3c0,.6-.4,1.1-1,1.3l-6.7,2.5c-.2,0-.3,0-.5,0ZM1098.3,901l-.6,15.2,3.6-1.3.6-14.6c-.3.3-.7.5-1.1.6-.8.3-1.7.3-2.5.1Z"/>
    </g>
    <g>
      <path class="st0" d="M1222.8,852.2c-.3,0-.6,0-.9-.3-.4-.3-.6-.8-.6-1.3l.8-18.5c0-.5.3-1,.8-1.3h.2c.4-.3.6-.6.7-1,.1-2,1.7-3.6,3.7-3.7,2-.2,3.8,1.2,4.2,3.2h0c0,.2,0,.4,0,.5h0c0,0-.8,18.5-.8,18.5,0,.6-.4,1.1-1,1.3l-6.7,2.5c-.2,0-.3,0-.5,0ZM1225,833.1l-.6,15.5,3.6-1.3.7-17.3c-.2-.7-.8-.8-1.1-.8-.2,0-.9.1-1,.9,0,1.2-.7,2.3-1.7,3Z"/>
      <path class="st0" d="M1222.8,852.2c-.2,0-.5,0-.7-.2l-6.8-3.7c-.5-.3-.8-.8-.8-1.4l.4-13.9c0-.4.2-.8.5-1.1.3-.3.8-.4,1.2-.3l2.8.5c.2,0,.4,0,.5,0,0,0,.1,0,.2,0l2.8-1.3c.5-.2,1-.2,1.5.1.4.3.7.8.7,1.3l-.8,18.5c0,.5-.3,1-.8,1.2-.2.1-.5.2-.7.2ZM1217.6,846.2l3.8,2.1.6-13.7-.7.3c0,0-.2,0-.3,0-.6.3-1.3.3-2.1.2l-1.1-.2-.3,11.2Z"/>
    </g>
    <path class="st0" d="M1179.9,847.6c-.3,0-.6,0-.9-.3-.5-.3-.7-.9-.6-1.4l.8-6.5c0-.7.7-1.3,1.4-1.3.7,0,1.4.5,1.5,1.2l1,5.6c.1.7-.2,1.3-.8,1.6l-1.8.9c-.2.1-.4.2-.7.2ZM918.9,774.8c0,0-.1,0-.2,0-.8-.1-1.4-.9-1.3-1.7l3.4-24.6c.1-.8.9-1.4,1.7-1.3.8.1,1.4.9,1.3,1.7h0s-2.9,21.4-2.9,21.4c-.2,1.1-.4,2.2-.5,3.2-.1.7-.7,1.3-1.5,1.3ZM913.2,773.9c-.3,0-.5,0-.8-.2h0s-15.7-9.3-15.7-9.3c-.4-.2-.7-.6-.7-1.1s.1-.9.4-1.2c.5-.5,1.3-.6,1.9-.2l15.6,9.3c.7.4.9,1.3.5,2.1-.3.5-.8.7-1.3.7ZM972.4,708.8h0c-.7,0-1.3-.5-1.4-1.2,0-.2,0-.4,0-.6,0-.6.2-1.2.8-1.5h.2c.6-.5,1.4-.4,1.9,0,.5.5.6,1.3.2,1.9,0,0,0,0,0,0,0,0,0,0,0,.2-.2.7-.8,1.2-1.5,1.2ZM997.9,707.4c-.6,0-1.2-.4-1.4-1-.3-.7,0-1.5.7-1.8l.7-.4c.4-.2,1-.2,1.4,0h.3c.5.4.9,1,.8,1.7s-.5,1.1-1.1,1.3c-.2,0-.3,0-.5.1-.2,0-.4,0-.5.1-.1,0-.2,0-.3,0ZM978.3,706.6c-.2,0-.3,0-.5,0-.1,0-.6-.1-1.9,0-.7,0-1.4-.3-1.6-1-.2-.7,0-1.4.7-1.8.6-.3,1.3-.7,1.9-1,.4-.2.9-.2,1.4,0,.4.2.8.6.8,1,0,0,0,.2.2.3.5.5.6,1.2.2,1.8-.3.5-.8.7-1.3.7ZM997.7,680.6c-.7,0-1.3-.5-1.5-1.1v-.4c-.3-.7-.2-1.5,0-2.2.3-.7,1-1.1,1.7-1,.7.1,1.2.8,1.2,1.5v1.7c0,.8-.6,1.4-1.3,1.5,0,0-.1,0-.2,0Z"/>
    <path class="st0" d="M996.8,707.6c-.5,0-1,0-1.5-.3-.7-.2-1.4-.7-1.9-1.3-.3-.4-1-.8-1.8-1.1-.5-.2-.9-.7-1-1.3,0-.6.3-1.1.8-1.4l16.5-8.9c.4-.3.8-.5,1.1-.8.2-.1.3-.3.5-.4.2-.1.3-.3.4-.4.3-.3.6-.6.8-.8.2-.2.3-.4.4-.5,0,0,0,0,0,0,0,0,.1-.2.2-.3,0,0,.2-.2.2-.3h0c.2-.4.3-.7.5-1,0,0,0,0,0,0h0c0-.1,0-.2.1-.2,0,0,0-.1,0-.2,0,0,0,0,0,0h0c0,0,0-.1,0-.1,0,0,0-.2,0-.2,0,0,0-.2,0-.2,0,0,0,0,0,0,0-.1,0-.3,0-.4h0c0-.1,0-.2,0-.2,0,0,0,0,0-.1,0-.2,0-.4,0-.6,0-.6.3-1.1.8-1.3.5-.3,1.1-.2,1.5,0,1.2.8,2.1,1.4,2.5,1.6.6.3,1.1.8,1.4,1.4l.3.5c.2.3.4.7.6,1,.2.3.3.6.2.9-.1,1.3-.1,2.8-.2,4.1,0,.5-.3,1-.8,1.3l-20.5,11.3c-.1,0-.2.1-.3.1-.1,0-.2,0-.4,0-.4,0-.8.1-1.1.1ZM997.3,704.8l.4,1.2-.2-.7-.3-.5ZM995.2,703.6c.2.2.4.4.5.6.1.1.3.2.5.3.4.1.7.1,1,0h0s.7-.4.7-.4l19-10.5c0-1,0-1.9.1-2.9-.1-.2-.3-.5-.4-.7l-.3-.5c0-.1-.2-.2-.3-.3-.2-.1-.4-.2-.7-.4,0,0,0,.2,0,.2,0,0,0,.1,0,.1,0,0,0,.1,0,.2,0,0,0,0,0,0,0,0,0,.1,0,.2,0,0,0,.2-.1.2,0,0,0,.1,0,.2-.2.4-.4.8-.7,1.3h0c0,.3-.2.4-.3.5,0,0,0,.1-.2.2-.2.3-.4.5-.6.7-.2.3-.6.6-.9,1-.1.1-.3.3-.5.5-.1.1-.3.3-.5.4-.5.4-1,.8-1.6,1.2l-14.2,7.7ZM1011,690.5h0s0,0,0,0ZM1011.3,690.2s0,0,0,0c0,0,0,0,0,0ZM1012.3,688.4h0s0,0,0,0Z"/>
    <path class="st0" d="M992.1,705c-.2,0-.4,0-.6-.1,0,0-.1,0-.2,0-1.9-.8-4.2-1-4.6-1,0,0,0,0-.1,0h-.1c-.2,0-.4,0-.6-.1-1.4-.4-2.5-.6-3.4-.8-.6-.1-1.1-.6-1.2-1.3s.2-1.2.8-1.5l3.3-1.7c3.9-2,7.8-4,11.4-5.9,7.1-3.7,13.2-6.9,15.5-8.1.5-.3,1.1-.2,1.6.1.3.2.6.4.9.6.4.3.7.8.7,1.3s0,.5,0,.8c0,.2,0,.3,0,.5,0,0,0,.2,0,.2,0,0,0,.2,0,.3,0,.1,0,.2,0,.3,0,0,0,.2,0,.2,0,0,0,.1,0,.2,0,.1,0,.2,0,.3,0,0,0,.1,0,.1,0,0,0,.1,0,.2,0,0,0,0,0,0,0,0,0,.1,0,.2,0,0,0,.2-.1.2,0,0,0,.1,0,.2-.2.4-.4.8-.7,1.3h0c0,.3-.2.4-.3.5,0,0,0,.1-.2.2-.2.3-.4.5-.6.7-.2.3-.6.6-.9,1-.1.1-.3.3-.5.5-.1.1-.3.3-.5.4-.5.4-1,.8-1.6,1.2l-16.6,9c-.2.1-.5.2-.7.2ZM991.5,704.9s0,0,0,0c0,0,0,0,0,0ZM987.2,700.8c.8,0,2.9.4,4.9,1.1l15.9-8.6c.4-.3.8-.5,1.1-.8.2-.1.3-.3.5-.4.2-.1.3-.3.4-.4.3-.3.6-.6.8-.8.2-.2.3-.4.4-.5,0,0,0,0,0,0,0,0,.1-.2.2-.3,0,0,.2-.2.2-.3h0c.2-.4.3-.7.5-1,0,0,0,0,0,0h0c0-.1,0-.2.1-.2,0,0,0-.1,0-.2,0,0,0,0,0,0h0c0,0,0-.1,0-.1,0,0,0-.2,0-.2,0,0,0-.1,0-.2-2.9,1.5-8.2,4.3-14.2,7.4-3.5,1.8-7.3,3.8-11.1,5.8ZM1011,690.5h0s0,0,0,0ZM1011.3,690.2s0,0,0,0c0,0,0,0,0,0ZM1012.3,688.4h0s0,0,0,0Z"/>
    <path class="st0" d="M984.5,659.6c-.7,0-1.3,0-1.8,0-.2,0-.5,0-.7-.2-2.8-1.6-5.7-3-8.4-4.1-.5-.2-.9-.7-.9-1.3,0-.6.3-1.1.8-1.4l8-4.4s0,0,.1,0c4.4-1.9,10.3-3,16.2-3,5.6,0,10.7.8,14.8,2.5.6.2,1,.8.9,1.5,0,.6-.5,1.2-1.1,1.3-8.2,2.2-12.5,5.7-13.6,6.8,0,0,0,0-.1,0,0,0,0,0,0,0-.6.5-1.2.9-1.9,1.1-3.8,1-9,1.2-12.2,1.2ZM998.5,657.3s0,0,0,0t0,0ZM998.7,657.1s0,0,0,0c0,0,0,0,0,0ZM983.2,656.5c2.7,0,8.7,0,12.8-1.1.2,0,.4-.1.5-.3,0,0,.2-.2.3-.3,1.1-1,4.4-3.7,10.3-5.9-2.8-.6-6-1-9.3-.9-5.4,0-10.9,1.1-14.9,2.8l-5.3,2.9c1.9.9,3.7,1.8,5.6,2.9Z"/>
    <path class="st0" d="M918.6,777.1c-.3,0-.6,0-.8-.2l-20.7-12.4c-.1,0-.2,0-.3-.1l-22.5-13.4c-.3-.2-.7-.4-.9-.6,0,0,0,0,0,0,0,0,0,0-.1,0l-.3-.2c-.2,0-.3-.2-.4-.3-.9-.7-1.8-1.5-2.6-2.4-.1-.2-.2-.3-.3-.4,0,0,0,0,0-.1-1.4-1.6-2.5-3.5-3.3-5.6v-.3c-.3-.4-.4-.8-.5-1.2-.5-1.9-.8-3.9-.7-5.9v-1.5c0,0,.5-11.4.5-11.4h0c0-.2,0-.2,0-.3.1-.9.3-1.8.4-2.8,0-.5.4-.9.8-1.1.4-.2,1-.2,1.4,0l54.7,30.5c.2,0,.3.2.5.4.3.3.4.8.4,1.2l-3.7,26.9c-.1.7-.7,1.3-1.5,1.3ZM898.1,761.6c.1,0,.2,0,.3.1l19,11.4,3.3-23.6-52-29c0,.2,0,.3,0,.5h0s-.5,13-.5,13c0,1.7.1,3.4.6,5,0,.3.2.6.3,1v.3c.8,1.7,1.7,3.3,2.8,4.6,0,.1.2.2.2.3,0,0,0,0,0,.1.7.7,1.4,1.4,2.2,2,0,0,.2.1.2.2,0,0,0,0,0,0h.2c.2.2.3.3.4.4.2.2.5.3.7.5l22.1,13.2ZM873.6,750.5s0,0,0,0c0,0,0,0,0,0Z"/>
    <path class="st0" d="M922.3,750.2c-.3,0-.5,0-.8-.2l-52.9-29.5c0,.2,0,.4,0,.6-.1.8-.9,1.4-1.7,1.3-.8,0-1.4-.8-1.3-1.6v-.3c.3-6,4-11.3,9.4-13.7l28.1-15.5c.4-.2.9-.2,1.3,0,.4.2.7.5.9,1,.4,1.4,1,1.6,1,1.6.2,0,.5.2.6.4l40.9,25.2c.9.6,1.7,1,2.5,1.3l.7.2c.5.2.8.3,1.1.3,0,0,.1,0,.1,0,.1,0,.2,0,.3,0,0,0,0,0,.1,0,1.7.3,3.2,0,4.7-.8l11.6-6.3c.3-.2.7-.2,1-.1,2.1.5,4.3,1,6.6,1.7.6.2,1,.7,1.1,1.3,0,.6-.2,1.2-.7,1.5l-17.1,10-35.6,19.6c-.3.2-.5.4-.5.7,0,.8-.7,1.4-1.5,1.4ZM869.2,717.4l52.4,29.2c.3-.4.8-.8,1.3-1.1l36.1-19.9,13.4-7.8c-.8-.2-1.6-.4-2.4-.6l-11.1,6c-2,1.2-4.2,1.6-6.6,1.2-.2,0-.4,0-.7-.1-.5-.1-1-.3-1.6-.5l-.7-.3c-1-.4-1.9-.9-3-1.5l-41.2-25.4s0,0,0,0c-.5-.2-1.3-.7-1.9-1.8l-26.8,14.8s0,0-.1,0c-3.4,1.5-6,4.4-7.1,7.8Z"/>
    <path class="st0" d="M918.6,777.1c-.8,0-1.5-.7-1.5-1.5s.7-1.5,1.5-1.5,1.5.7,1.5,1.5h0c0,.9-.7,1.5-1.5,1.5Z"/>
    <path class="st0" d="M1099.3,901.1c-.7,0-1.4-.2-2-.5l-17.8-10.3c-1.4-.8-2.2-2.4-2-4.1l.7-5-.2.7c-.3,1.2-1.1,2.1-2.2,2.6s-2.3.5-3.4,0l-14.4-6.8c-.7-.3-1.3-.9-1.7-1.6l-2.8-4.7c-.1-.2-.2-.3-.4-.4-1.8-1-5.3-2.9-5.9-3.1-.4-.2-1.1-.7-6.3-5.5-.3-.3-.7-.3-.8-.3-.2,0-.5.1-.7.5-3,4.9-3.9,5.2-4.8,5.2-.5,0-1.3,0-10.3-5.6-.9-.5-1.5-1.4-1.8-2.5l-2.2-9.6c0-.3-.3-.6-.6-.7l-21.7-7.3c-1-.3-1.9-1.1-2.4-2.1-1.4-3.1-2.2-4.1-2.5-4.4-.3,0-.7,0-1.1.1-2.1.2-4.5.5-5.1-1.4-.6-1.2-5.3-6.7-6.4-7.4-1.7-.4-11.4-2.6-12.4-2.7-1.1,0-7.5-1-9.2-1.4-1.8-.5-4.5-3.2-5.6-4.4,0,0,0,0,0,0l-9.6-7.9c-.7-.6-1.2-1.4-1.4-2.3l-.7-3.6c-.1-.7-.7-.8-.9-.8-.2,0-.7,0-1,.5l-.6,1c-1.1,1.9-3.5,2.6-5.4,1.5l-16.7-8.9c-.1,0-.3-.2-.4-.3-1.2-.8-1.8-2.2-1.7-3.6.1-1.9.7-9,2.1-18.5,0,0,0-.2,0-.3l.3-2.1c.2-1.1.3-2.2.5-3.3v-.2s2.9-21.1,2.9-21.1c0-.5.4-.9.8-1.1.4-.2,1-.2,1.4,0l161.9,86c.2.1.4.3.6.5,3.5,5.5,6.9,10.3,6.9,10.3,2.1,2.8,3.9,5.9,5.5,9.4.2.5.8.6,1.3.5.5,0,1.1-.4,1.2-.9.7-3.4.7-7.9,0-13.6,0-.7.4-1.4,1.1-1.6.3,0,.5-.2.9-.4l68.5-33.7s0,0,.1,0l57.9-28.5c-.5-.5-.6-1.2-.3-1.8.4-.7,1.3-1,2-.6l2.1,1.2s0,0,.1,0c2.1,1.1,15.1,9.8,5.4,52.9,0,.2,0,.4-.1.5l-1.5,4.3c-.6,1.7-2.2,2.8-4,2.7-1.8,0-3.3-1.4-3.7-3.2l-.3-1.4c0,0,0-.2,0-.3-.2-.8-.8-.8-1.1-.8-.2,0-.9.1-1,.9-.1,1.5-1,2.8-2.3,3.4h-.1c0,0-3,1.4-3,1.4,0,0-.2,0-.3,0-.6.3-1.3.3-2.1.2l-4-.7c-.4,0-.8.1-1,.5l-4.1,6.8s-.2.3-.4.5l-.5.6c-.9,1.1-2.2,1.6-3.5,1.5-1.4-.1-2.5-.9-3.2-2.1l-.6-1.1c-.3-.6-.9-.6-1.1-.5-.2,0-.8.2-.8,1v1.6c0,1.4-.7,2.6-1.8,3.3l-5.1,3.5c-.1,0-.2.2-.3.3l-3.1,5c-.4.7-1.1,1.3-2,1.7h-.3c-1.1.5-2.3.4-3.4-.2-1-.6-1.7-1.6-2-2.8l-.8-4.5-.2,1.6c0,.6-.3,1.1-.5,1.6l-1.8,3c-.6,1-1.6,1.7-2.7,1.9-1.1.2-2.3,0-3.2-.7l-.6-.4c-.3-.2-.6-.3-.9-.2-.3.1-.6.3-.7.6l-.7,2c-.4,1.2-1.4,2.2-2.6,2.5-1.2.4-2.6.2-3.6-.6-1-.7-2.1-1.4-3.2-2-.3,1.1-.8,3.2-1.2,6.8-.1,1-.6,1.8-1.4,2.5l-8,6.7c-.5.4-1.2.8-1.9.9l-10,1.7c-.1,0-.2,0-.4.2l-8.7,5.7c-.4.3-.8.5-1.3.5l-10.5,2.5c-.1,0-.3,0-.4.2l-3.7,2.7c-1.2.8-2.6,1-3.9.5-1.1-.5-1.9-1.4-2.3-2.5,0,.2,0,.4-.2.6l-1.3,4.1s0,0,0,.1l-1.9,6.1c-.4,1.2-1.3,2.1-2.4,2.5-.5.2-1,.3-1.4.3ZM1083.7,853c0,0,.2,0,.3,0,.8.2,1.3.9,1.2,1.7l-4.7,31.9c0,.4.1.8.5,1l17.8,10.3c.4.2.7.1.9,0,.2,0,.5-.2.6-.7l1.9-6.1c0,0,0-.2,0-.3l1.3-4.1c0-.1,0-.3,0-.5l-1.4-27.5c0-.8.6-1.5,1.3-1.6.8,0,1.5.5,1.6,1.3l4.2,27.6c0,.5.5.7.6.8.2,0,.6.2,1-.1l3.7-2.7c.5-.4,1-.6,1.5-.7l10.5-2.6s0,0,.1,0c0,0,.1,0,.2,0l8.7-5.7c.5-.3,1-.5,1.6-.6l10-1.7c.2,0,.3-.1.5-.2l8-6.7c.2-.2.3-.4.4-.6,1.2-8.9,2.1-9.4,2.8-9.8.5-.3,1.1-.3,1.6,0,1.6.8,3.2,1.8,4.7,2.9.3.2.6.3.9.2.2,0,.5-.2.6-.6l.7-2c.4-1.2,1.4-2.2,2.6-2.5,1.2-.4,2.5-.2,3.6.6l.6.4c.3.2.7.2.8.2.2,0,.5-.1.7-.5l1.8-3c0-.1.1-.3.1-.4l1.3-11.3c0-.7.7-1.3,1.4-1.3.7,0,1.4.5,1.5,1.2l2.6,14.1c0,.4.3.6.5.7.3.2.6.2.9,0h.3c.2-.2.4-.3.5-.5l3.1-5.1c.3-.5.6-.9,1.1-1.2l5.2-3.5c.3-.2.5-.5.5-.9v-1.5c0-1.9,1.3-3.5,3.1-3.9,1.8-.4,3.6.4,4.5,2.1l.6,1.1c.2.4.6.5.8.5.2,0,.6,0,.9-.4l.5-.6c0,0,.1-.1.1-.1l4.1-6.7c.8-1.4,2.5-2.2,4.1-1.9l4,.7c.2,0,.4,0,.5,0,0,0,.1,0,.2,0l2.9-1.3c.4-.2.6-.5.7-.9.1-2,1.7-3.6,3.7-3.7,2-.2,3.8,1.2,4.2,3.2h0c0,.2,0,.3,0,.4l.3,1.3c.2.7.8.8,1,.8.2,0,.8,0,1-.7l1.5-4.3s0,0,0,0c0,0,0,0,0,0,9.2-40.9-2.5-48.9-3.8-49.6-.3.4-.6.7-1.1.9l-58.3,28.7s0,0-.1,0l-68.4,33.6c0,0-.1,0-.2,0,.6,5.5.6,10-.1,13.4-.4,1.8-1.9,3.1-3.8,3.3-1.9.2-3.6-.7-4.4-2.3-1.5-3.2-3.3-6.2-5.2-8.9,0,0-3.3-4.7-6.8-10.1l-159.7-84.8-2.6,19.3c-.2,1.1-.4,2.2-.5,3.2l-.3,2.3c0,.1,0,.2,0,.3-1.3,9.3-1.9,16.2-2,18.1,0,.4.2.8.5,1,0,0,.2.1.3.2l16.4,8.8c.5.3,1.1,0,1.4-.4l.5-.9c.8-1.5,2.5-2.2,4.1-2,1.7.3,3,1.5,3.3,3.2l.7,3.6c0,.2.2.4.4.6l9.6,7.8c.1.1.3.2.4.3,1.7,1.8,3.6,3.4,4.2,3.6,1.4.3,7.8,1.2,8.7,1.3,1.3,0,12.1,2.6,13.1,2.8,1.8.5,6.8,6.6,8.1,8.8.5,0,1.6,0,2.2-.1.7,0,1.3-.1,1.8-.1,1.3,0,2.5,1.1,4.8,6.2.1.2.3.4.6.5l21.7,7.3c1.3.4,2.3,1.5,2.6,2.9l2.2,9.6c0,.3.2.5.5.6,3.8,2.4,7.1,4.3,8.4,4.9.4-.5,1.2-1.5,2.5-3.6.6-1,1.7-1.7,2.9-1.9,1.2-.2,2.4.2,3.3,1.1,1.2,1.1,4.9,4.6,5.6,5,1,.5,5.9,3.1,5.9,3.2.6.3,1.1.8,1.5,1.4l2.9,4.7c.1.2.3.3.4.4l14.4,6.8c.4.2.7,0,.9,0s.4-.3.6-.7l7.1-26.9c.2-.7.8-1.1,1.5-1.1ZM1048.6,865.2s0,0,0,0c0,0,0,0,0,0ZM1159.3,858.3s0,0,0,0c0,0,0,0,0,0ZM987,834.3s0,0,0,0c0,0,0,0,0,0ZM989.8,833.2c0,.1,0,.2.1.3,0,0,0-.2-.1-.3Z"/>
    <path class="st0" d="M997.9,707.4c-.6,0-1.2-.4-1.4-1-.3-.7,0-1.5.7-1.8l.7-.4c.4-.2,1-.2,1.4,0h.3c.5.4.9,1,.8,1.7s-.5,1.1-1.1,1.3c-.2,0-.3,0-.5.1-.2,0-.4,0-.5.1-.1,0-.2,0-.3,0Z"/>
    <path class="st0" d="M1606.2,1057.8c-.3,0-.5,0-.8-.2l-26.8-15.5-266.6-153.9c-.5-.3-.7-.7-.7-1.3s.2-1,.7-1.3l30.9-20.4,1.9-23.7-49.8-28.8c-5.5,3.1-40.3,22.3-44.2,25.1-4,2.9-6,5.9-6,9,0,.5-.3,1-.8,1.3-.5.3-1,.3-1.5,0l-13.4-7.7c-.5-.3-.8-.8-.7-1.4l.4-9.1c0-.8.6-1.4,1.4-1.4.8,0,1.4.4,1.6,1.2l.3,1.4c.2.7.8.8,1,.8.2,0,.8,0,1-.7l1.5-4.3s0,0,0,0c0,0,0,0,0,0,9.7-43-3.8-49.6-3.9-49.7-.1,0-.2-.1-.3-.2l-2.3-1.3-115.8-66.1c-.6-.3-.9-1-.7-1.6,0-.1,0-.2,0-.4s0-.1,0-.2v-.2c0,0,0-.2,0-.3,0-.4,0-.7.3-1,3-4.2,2.5-8.3,2.5-8.3,0,0,0-.2,0-.2.7-22.2-27.7-32-27.9-32.1-17.9-6.5-39.1-13.1-39.3-13.2-13.5-3.7-25.4-4.2-35.5-1.6-.3,0-.7,0-1,0-3.6-1.5-8.5-2.4-13.6-2.3-.4,0-.8-.2-1.1-.4-.3-.3-.4-.7-.4-1.1l2.2-640.2c0-.5.3-1,.8-1.3.5-.3,1-.3,1.5,0l261.3,150.9,344.9,199.1c.5.3.8.8.8,1.3v700c0,.5-.3,1-.8,1.3-.2.1-.5.2-.8.2ZM1315.6,886.7l289.1,166.9V357.2l-344.2-198.7L1001.5,8.9l-2.2,636.1c4.8,0,9.2.9,12.8,2.3,10.5-2.7,22.8-2.1,36.6,1.7.3,0,21.5,6.7,39.4,13.2,1.2.4,30.7,10.5,30,34.9,0,.8.3,5.2-2.7,9.8,0,0,0,.2,0,.4l117.4,67s0,0,.1,0c1,.5,4.6,2.8,7,10,3.2,9.8,2.7,24.2-1.5,42.8,0,.2,0,.4-.1.5l-1.5,4.3c-.6,1.7-2.2,2.8-4,2.7-.5,0-.9-.1-1.3-.3l-.2,3.6,10.6,6.1c.8-3.2,3.1-6.2,7-9,4.3-3.1,43.6-24.8,45.3-25.7.5-.3,1-.2,1.5,0l51.3,29.7c.5.3.8.8.7,1.4l-2,25.4c0,.5-.3.9-.7,1.1l-29.5,19.5ZM1235.4,827h0s0,0,0,0Z"/>
    <path class="st0" d="M952.5,724.4s0,0-.1,0c-.3,0-.5,0-.7-.1-.5-.1-1-.3-1.6-.5l-.7-.3c-1-.4-1.9-.9-3-1.5l-41.2-25.4s0,0,0,0c-.7-.3-2-1.2-2.7-3.5,0-.2,0-.4,0-.6-.2-.6-.3-1.2-.4-1.8,0-.2,0-.3,0-.4,0-.1,0-.3,0-.4,0,0,0-.1,0-.2h0c0-.3,0-.5,0-.7.2-.8,1-3.7,3.7-4.8,2.2-1,5-.4,8.3,1.7l.3.2,36.2,22.2c.5.3.8.9.7,1.5-.1.6,1.3,1.6,4.6,2.2.3,0,.5.2.8.4.6.6,1,1.1,1.4,1.6h0s0,0,0,0c.6.8,1,1.7,1.2,2.6,0,.4.1.9.1,1.5,0,.2,0,.4,0,.6,0,.4-.2.7-.3,1h0c0,.2-.1.4-.2.5-.1.3-.3.5-.4.6,0,0,0,0,0,0-.3.4-.7.8-1.1,1.1-.3.2-.5.4-.7.6,0,0,0,0,0,0-.3.2-.7.5-1.1.7-.6.3-1.3.7-2.1,1,0,0-.1,0-.2,0-.2,0-.3,0-.5,0ZM907,694.2l40.9,25.2c.9.6,1.7,1,2.5,1.3l.7.2c.5.2.8.3,1.1.3,0,0,.1,0,.1,0,0,0,0,0,0,0,.5-.2,1-.5,1.5-.7.3-.2.6-.3.8-.5h0s0,0,.1,0c.1,0,.2-.2.3-.2,0,0,0,0,.1-.1.2-.2.4-.4.6-.6h0c0-.1,0-.2,0-.2,0,0,0,0,0-.2,0,0,0-.1,0-.2v-.2c0,0,.1-.1.2-.3,0,0,0,0,0,0,0-.3,0-.5,0-.7-.1-.5-.3-1-.7-1.5,0,0,0,0,0-.1-.2-.2-.4-.5-.7-.8-4.9-1-6.4-2.9-6.6-4.5l-35.8-22c-2.3-1.5-4.2-2-5.5-1.5-1.4.6-1.9,2.5-1.9,2.8,0,.1,0,.2,0,.4v.3c0,.5.2,1.1.5,1.6.1.3.1.5.1.8.4.9.8,1.1.8,1.1.2,0,.5.2.6.4Z"/>
    <path class="st0" d="M954.1,724.5c-.6,0-1.2,0-1.8-.2-.8-.1-1.3-.8-1.2-1.6,0-.6.5-1.1,1.1-1.3.6-.3,1.2-.5,1.7-.8.3-.2.6-.3.8-.5h0s0,0,.1,0c.1,0,.2-.2.3-.2,0,0,0,0,.1-.1.2-.2.4-.4.6-.6h0c0-.1,0-.2,0-.2,0,0,0,0,0-.2,0,0,0-.1,0-.2v-.2c0,0,.1-.1.2-.3,0,0,0-.1,0-.2,0-.2,0-.4,0-.6-.1-.5-.3-1-.7-1.5,0,0,0,0,0-.1-.2-.3-.5-.7-1-1.1-.5-.5-.6-1.2-.3-1.8.3-.6,1-.9,1.6-.8.9.2,1.9.3,2.8.4,0,0,0,0,.1,0,.9,0,1.5.1,1.5.1,2.8.2,6,.7,9.6,1.6.4,0,.7.3.9.4.3.3.5.8.4,1.3,0,.5-.4.9-.8,1.1l-11.6,6.3c-1.5.9-3.1,1.3-4.8,1.3ZM959.3,718.2c0,.2,0,.3,0,.5,0,.4-.2.7-.3,1h0c0,.1,0,.1,0,.1l6.6-3.6c-2-.4-3.7-.6-5.3-.7,0,0-.5,0-1.3,0,.2.4.3.8.4,1.2.1.5.2,1,.1,1.5ZM969.7,717.1h0,0Z"/>
    <path class="st0" d="M972.4,708.8h0c-.7,0-1.3-.5-1.4-1.2,0-.2,0-.4,0-.6,0-.6.2-1.2.8-1.5h.2c.6-.5,1.4-.4,1.9,0,.5.5.6,1.3.3,1.9,0,0,0,0,0,.2-.2.7-.8,1.2-1.5,1.2Z"/>
    <path class="st0" d="M978.3,706.6c-.2,0-.3,0-.5,0-.1,0-.6-.1-1.9,0-.7,0-1.4-.3-1.6-1-.2-.7,0-1.4.7-1.8.6-.3,1.3-.7,1.9-1,.4-.2.9-.2,1.4,0,.4.2.8.6.8,1,0,0,0,.2.2.3.5.5.6,1.2.2,1.8-.3.5-.8.7-1.3.7Z"/>
    <path class="st0" d="M957.2,664.7c-.5,0-1-.2-1.2-.7-.4-.6-.3-1.5.3-2,2.1-1.7,4.6-3.1,7.4-4.1.7-.3,1.5,0,1.9.8.3.7,0,1.5-.6,1.9l-6.9,3.8c-.2.1-.5.2-.7.2Z"/>
    <path class="st0" d="M997.7,680.6c-.7,0-1.3-.5-1.5-1.1v-.4c-.3-.7-.2-1.5,0-2.2.3-.7,1-1.1,1.7-1,.7.1,1.2.8,1.2,1.5v1.7c0,.8-.6,1.4-1.3,1.5,0,0-.1,0-.2,0Z"/>
    <path class="st0" d="M393.8,1057.8c-.3,0-.5,0-.7-.2-.5-.3-.8-.8-.8-1.3V356.3c0-.5.3-1,.8-1.3L999.2,5c.5-.3,1-.3,1.5,0,.5.3.8.8.7,1.3l-2.2,640.2c0,.8-.7,1.5-1.5,1.5-5.4,0-10.9,1.1-14.9,2.8l-8,4.4c-.4.2-.9.2-1.3,0-1.6-.6-2.8-1.1-4-1.5-4.6-1.5-9.8-1.2-14.5.9-12.3,5.6-41.7,20-49.5,32.2h0s-.7,1.1-.7,2.6c0,0,0,.2,0,.2,0,.1,0,.2,0,.4v.3c0,.7.2,1.3.3,1.8.2.7,0,1.4-.7,1.8l-28.2,15.6s0,0-.1,0c-4.5,1.9-7.5,6.3-7.7,11.1,0,0,0,0,0,.1v.3s-.5,13-.5,13c0,1.7.1,3.4.6,5,0,.1,0,.3,0,.5l-1.1,39,1,.6c.5.3.8.8.8,1.3,0,.5-.3,1-.7,1.3l-474.1,275.9c-.2.1-.5.2-.8.2ZM395.3,357.2v696.5l469.7-273.3c-.2-.3-.4-.7-.4-1l1.1-39.7c-.5-1.8-.7-3.7-.6-5.7v-1.5c0,0,.5-11.4.5-11.4h0c0-.1,0-.2,0-.2v-.3c.3-6,4-11.3,9.4-13.7l27.1-15c0-.4-.1-.8-.2-1.3,0-.1,0-.3,0-.4,0-.1,0-.3,0-.4,0,0,0-.1,0-.2h0c0-.2,0-.3,0-.5,0-2.2,1-3.8,1.1-3.9,7.9-12.4,35.2-26.2,50.8-33.3,5.4-2.5,11.3-2.8,16.6-1.1,1.1.4,2.2.8,3.6,1.3l7.4-4.1s0,0,.1,0c4.1-1.7,9.3-2.8,14.7-3l2.2-636.1L395.3,357.2Z"/>
    <path class="st0" d="M627.4,695.9c-.3,0-.5,0-.8-.2-.5-.3-.8-.8-.8-1.3v-228.7c0-.6.3-1.1.8-1.3l26-13.5c.5-.2,1-.2,1.5,0,.4.3.7.8.7,1.3v227.2c0,.5-.3,1-.8,1.3l-26,15c-.2.1-.5.2-.8.2ZM628.9,466.7v225.2l23-13.3v-223.8l-23,11.9Z"/>
    <path class="st0" d="M677.1,666.4c-.3,0-.5,0-.7-.2-.5-.3-.8-.8-.8-1.3v-228.7c0-.6.3-1.1.8-1.3l26-13.5c.5-.2,1-.2,1.5,0,.4.3.7.8.7,1.3v227.2c0,.5-.3,1-.7,1.3l-26,15c-.2.1-.5.2-.8.2ZM678.6,437.1v225.2l23-13.3v-223.8l-23,11.9Z"/>
    <path class="st0" d="M723.8,641.8c-.3,0-.5,0-.8-.2-.5-.3-.7-.8-.7-1.3v-228.7c0-.6.3-1.1.8-1.3l26-13.5c.5-.2,1-.2,1.5,0,.4.3.7.8.7,1.3v227.2c0,.5-.3,1-.8,1.3l-26,15c-.2.1-.5.2-.7.2ZM725.3,412.5v225.2l23-13.3v-223.8l-23,11.9Z"/>
    <path class="st0" d="M773.5,611.3c-.3,0-.5,0-.8-.2-.5-.3-.8-.8-.8-1.3v-228.7c0-.6.3-1.1.8-1.3l26-13.5c.5-.2,1-.2,1.5,0,.4.3.7.8.7,1.3v227.2c0,.5-.3,1-.8,1.3l-26,15c-.2.1-.5.2-.8.2ZM775,382v225.2l23-13.3v-223.8l-23,11.9Z"/>
    <path class="st0" d="M872.9,784.5c-.2,0-.5,0-.7-.2l-6.8-3.7c-.5-.3-.8-.8-.8-1.4l1.1-39.9c0-.7.6-1.3,1.3-1.4.7,0,1.4.4,1.6,1.1.1.3.2.7.3,1v.3c.8,1.7,1.7,3.3,2.8,4.6,0,.1.2.2.2.3,0,0,0,0,0,.1.7.7,1.4,1.4,2.2,2,0,0,.2.1.2.2,0,0,0,0,0,0h.2c.2.2.4.4.6.5.3.3.4.7.4,1.1v.2l-1.4,33.7c0,.5-.3,1-.8,1.2-.2.1-.5.2-.7.2ZM867.6,778.4l3.8,2.1,1.3-30.6c0,0-.1-.1-.2-.2-.9-.7-1.8-1.5-2.6-2.4-.1-.2-.2-.3-.3-.4,0,0,0,0,0-.1-.4-.4-.7-.8-1-1.3l-.9,32.8ZM873.6,750.5s0,0,0,0c0,0,0,0,0,0Z"/>
    <path class="st0" d="M918.6,777.1c-.8,0-1.5-.7-1.5-1.5s.7-1.5,1.5-1.5,1.5.7,1.5,1.5h0c0,.9-.7,1.5-1.5,1.5Z"/>
    <path class="st0" d="M949.7,711c-.3,0-.5,0-.8-.2l-36.5-22.4c-2.3-1.5-4.2-2-5.5-1.5-1.5.7-1.9,2.8-2,2.8-.1.8-.8,1.3-1.6,1.2-.8,0-1.4-.7-1.4-1.5,0-2.4,1-4,1.1-4.2,7.9-12.4,35.2-26.2,50.8-33.3,5.4-2.5,11.3-2.8,16.6-1.1,1.3.4,2.6.9,4.2,1.6,2.9,1.2,5.8,2.6,8.8,4.3.6.3.9,1,.7,1.7s-.8,1.1-1.5,1.1c-1.3,0-2.1,0-2.1,0-6.2-.7-11.6-.2-16,1.3-2.4.8-4.6,2-6.4,3.5-5,4-6.3,9.2-6.6,10.6,0,0,0,.2,0,.2,0,.3.1.6.2.8,0,.2,0,.3.1.5.1.5.2.9.4,1.4.1.4.3.8.4,1.3,0,.3.2.6.3.9.1.3.2.6.3.8,0,0,0,.1,0,.2v.2c0,0,.1,0,.1.1,0,0,0,.1,0,.2.2.6.5,1.2.9,1.9.2.3.3.6.5.9.2.3.4.6.5.8,0,0,0,0,0,0,.3.5.7,1,1.1,1.4,0,0,0,0,0,.1.2.2.3.4.5.6.2.2.3.4.5.5.4.5.9.9,1.5,1.3.3.2.5.4.8.6.3.2.6.4.9.6.3.2.7.4,1.1.6,0,0,0,0,0,0,6.9,3.4,15,1.4,17.3.7.9-.3,1.9-.3,2.8,0,0,0,0,0,.1,0h.3c0,.1,2.9,1.4,2.9,1.4.3.1.8.2,1.1,0,2.1-.8,3.9-3.2,4.6-4.2.7-1,1.8-1.7,3.2-1.9,1.1-.2,2-.4,2.6-.7.1,0,.2-.1.3-.2.4-.2.5-.6.4-.9l-1.5-5.8c0-.1,0-.2,0-.4v-1.7c0-.2,0-.4.1-.6.5-1.2,1.5-2,2.8-2.5h.2c1.9-.6,3.8,0,4.9,1.5,1.7,2.4,5.1,5.4,9.8,8.5.4.3.7.8.7,1.3,0,.5-.3,1-.8,1.2-2.3,1.3-8.4,4.4-15.5,8.1-3.6,1.9-7.5,3.9-11.4,5.9l-3.3,1.7c-.3.2-.7.2-1,.1-.6-.1-1.1-.2-1.7-.3-.5,0-1,0-1.3.3-.2.2-.4.5-.4.8s0,0,0,.1c.1.7-.2,1.3-.8,1.6-.7.3-1.3.7-1.9,1-.2,0-.3.1-.5.2-.3,0-.7,0-1,.2-.5,0-.9.3-1,.7-.2.3-.4.6-.7.7,0,0-.1,0-.2,0-.4.2-1,.2-1.4,0-.4-.2-.8-.6-.9-1-.3-1.4-1.8-3.3-2.4-3.9-.1-.1-.2-.2-.3-.4-.6-.8-5.4-3.8-14.6-8.3,0,0,0,0,0,0,0,1-.8,1.8-1.8,2.3-1.2.5-1.8,1.1-2.1,1.8-.4,1.3.6,3,.8,3.3.1.2.3.6.4,1.1l.8,5.1c0,.5,0,1-.2,1.5,0,.1-.1.3-.1.4-.1.5-.4.9-.9,1-.2,0-.4.1-.6.1ZM908,683.7c1.8,0,3.7.7,5.9,2.1l.3.2,34.1,20.9-.5-3.5c-.6-1-1.8-3.3-1-5.8.5-1.6,1.8-2.8,3.7-3.6.2-1.4,1.5-2.5,3-2.5s.9.1,1.4.3c13.3,6.6,15.3,8.7,15.8,9.5.4.4,1.4,1.6,2.2,3,.4-.3,1-.5,1.5-.6.3,0,.6-.1.9-.2.3-.2.6-.3.9-.5.1-1,.6-1.9,1.4-2.5,1-.9,2.3-1.2,3.7-1.1.5,0,.9.1,1.4.2l2.8-1.4c3.9-2,7.8-4,11.4-5.9,5.5-2.8,10.4-5.4,13.3-7-3.1-2.2-6.6-5.1-8.5-7.9-.3-.4-1-.6-1.5-.4h-.2c-.4.2-.7.4-.9.6v1.1l1.4,5.6c.4,1.6-.4,3.4-1.9,4.2,0,0,0,0,0,0,0,0-.1,0-.2.1,0,0,0,0-.1,0-.9.4-2.1.8-3.6,1-.5,0-.9.3-1.1.6-1.1,1.5-3.2,4.3-6.1,5.3-1.1.4-2.3.3-3.3,0l-3-1.3c-.3,0-.6,0-1,0-2.6.8-11.7,3.1-19.7-.9,0,0,0,0-.1,0-.4-.2-.8-.4-1.2-.7-.4-.2-.7-.4-1.1-.7-.3-.2-.6-.5-1-.7-.7-.5-1.3-1-1.8-1.6-.2-.2-.3-.3-.5-.5-.3-.3-.5-.5-.7-.8h0s0,0,0,0c-.5-.5-.9-1.1-1.3-1.7h0s0,0,0,0c-.2-.3-.4-.6-.6-1-.2-.3-.4-.7-.6-1-.4-.8-.7-1.5-1-2.1,0,0-.1-.2-.2-.4,0-.1,0-.2-.1-.3-.1-.3-.3-.6-.4-.9-.1-.3-.2-.6-.3-1-.2-.5-.3-.9-.4-1.4-.1-.5-.3-.9-.4-1.4,0-.1,0-.3-.1-.5,0-.3-.1-.6-.2-.9-.1-.5-.1-1,0-1.5.3-1.7,1.9-7.6,7.7-12.3,2.1-1.7,4.6-3.1,7.4-4.1,3.6-1.3,7.7-1.9,12.2-1.8-.7-.3-1.5-.7-2.2-1-1.6-.6-2.8-1.1-4-1.5-4.6-1.5-9.8-1.2-14.5.9-11.3,5.2-36.9,17.7-47.1,29.1ZM950.5,694.2s0,0,0,0c0,0,0,0,0,0Z"/>
    <path class="st0" d="M958.2,691.8c-.3,0-.6-.1-.9-.3-.7-.5-1.3-1-1.8-1.6-.6-.6-.6-1.5,0-2.1.6-.6,1.5-.6,2.1,0,.5.5,1,.9,1.5,1.3.6.5.8,1.4.3,2.1-.3.4-.7.6-1.2.6Z"/>
    <path class="st0" d="M972.4,708.8h0c-.7,0-1.3-.5-1.4-1.2,0-.2,0-.4,0-.6,0-.6.2-1.2.8-1.5h.2c.6-.5,1.4-.4,1.9,0,.5.5.6,1.3.3,1.9,0,0,0,0,0,.2-.2.7-.8,1.2-1.5,1.2Z"/>
    <path class="st0" d="M970.9,695.9c-3.3,0-6.9-.5-10.4-2.3-.7-.4-1-1.3-.7-2,.4-.7,1.3-1,2-.7,7,3.4,15.1,1.4,17.5.7.9-.3,1.7-.3,2.7,0,.8.2,1.2,1.1,1,1.9-.2.8-1.1,1.2-1.9,1-.3,0-.6,0-1,0-1.5.5-5,1.4-9.3,1.4Z"/>
    <path class="st0" d="M978.3,706.6c-.2,0-.3,0-.5,0-.1,0-.6-.1-1.9,0-.7,0-1.4-.3-1.6-1-.2-.7,0-1.4.7-1.8.6-.3,1.3-.7,1.9-1,.4-.2.9-.2,1.4,0,.4.2.8.6.8,1,0,0,0,.2.2.3.5.5.6,1.2.2,1.8-.3.5-.8.7-1.3.7Z"/>
    <path class="st0" d="M1101.9,841c-.3,0-.6,0-.8-.2-.4-.2-.6-.6-.7-1.1-.6-4.8-1.7-10.1-3.2-16-.2-.8-.1-1.7.3-2.6,4.3-9,1.5-13.1,1.5-13.1-.2-.2-.3-.5-.3-.8-.3-.4-3.1-1-11.6.9-1.9.4-3.8-.3-4.7-1.8-4.4-7.1-17.6-19.4-23.1-24.3-.5-.4-.6-1.1-.4-1.6.2-.6.8-1,1.4-1,.9,0,1.6,0,2.2,0,.7,0,1.1,0,1.4,0,0,0,.2,0,.2,0,28.1-3,34.5,3.9,36,7.1.1.2.3.5.5.7,4.8,5.6,9.4,18.2,11.7,25.3.4,1.2,1.8,2,3.3,2s1.3-.1,1.9-.4c1-.5,1.7-1.2,1.9-1.9,1.3-4.4,0-12.9-.7-16.3-.1-.5-.3-.9-.5-1.2-1.7-2-2.2-6.7-2.3-9.3,0-.9.1-1.9.6-2.9,1.3-2.7,2.1-5,2.1-6.9.1-1.9-.4-3.3-1.5-4.4-2-2-6.2-2.9-11.9-2.6-2.1.1-4,.4-5,.5-.8.1-1.5.1-2.2,0-19-2.2-31.2-5-38-7-2.4-.7-4.1-2.6-4.4-4.9-.3-2.4,1-4.7,3.3-5.9,3.1-1.7,6.5-3.7,9.9-6,0,0,.1,0,.2,0,6-3.9,12.8-8.8,19.7-14.2.6-.5,1.3-.8,2.1-1.1,15.6-5.5,20.4-15,21.7-21.9,0-.3.2-.6.5-.8,0,0,.2-.2.3-.2.5-.3,1-.3,1.5,0l116.1,66.3c.9.5,1.4,1.5,1.4,2.5,0,1-.6,2-1.6,2.4,0,0,0,0,0,0l-58.3,28.7s0,0-.1,0l-68.4,33.6c-.4.2-.8.4-1.4.6-.1,0-.3,0-.4,0ZM1101.5,806.5c.8,1.4,3.1,6.5-1.4,15.9,0,.2-.1.3,0,.5,1.4,5.2,2.4,10,3.1,14.4l67.8-33.3s0,0,.1,0l57.9-28.5-114-65.1c-2,7.5-7.7,16.7-23.2,22.2-.5.2-.9.4-1.2.6-7,5.5-13.9,10.4-20,14.4,0,0,0,0-.2,0-3.4,2.3-6.8,4.3-9.9,6-1.2.7-1.9,1.8-1.8,3,.1,1.1.9,2,2.2,2.3,6.7,1.9,18.7,4.7,37.5,6.9.4,0,.8,0,1.3,0,.5,0,2.5-.4,5.3-.6,4.6-.3,10.8.1,14.2,3.5,1.7,1.7,2.5,4,2.4,6.7-.1,2.3-.9,4.9-2.4,8-.2.5-.3.9-.3,1.4.2,3.6.9,6.6,1.6,7.6.6.7,1,1.5,1.2,2.6.8,4.6,2,12.9.6,17.7-.5,1.6-1.7,3-3.5,3.8-1,.5-2.1.7-3.2.7-2.9,0-5.4-1.7-6.2-4.1-2.2-6.8-6.6-19.1-11.1-24.2-.3-.4-.7-.8-.9-1.4-.4-.8-4.8-8.4-33-5.3,0,0-.1,0-.2,0h0c6.4,5.9,16.9,16,20.9,22.5.2.4.9.6,1.5.4,11.1-2.5,13.3-.9,14-.4.6.4,1,1,1.2,1.7ZM1229.9,776.7h0,0ZM1229.2,775.7s0,0,0,0h0Z"/>
    <path class="st0" d="M998.9,707.1c-.2,0-.5,0-.7-.2h-.3c-.5-.4-.8-.9-.8-1.5,0-.5.3-1.1.8-1.3l19.7-10.9c.5-.3,1.1-.2,1.5,0,.5.3.7.8.7,1.4,0,.3,0,.5,0,.8v.6c0,1.5,0,3.2,0,5s-.5,1.3-1.2,1.5c-5.9,1.2-13,3-15.7,3.7,0,0,0,0-.1,0-.8.2-1.6.4-2.3.6l-1.1.3c-.1,0-.2,0-.4,0ZM1016.8,697.2l-8,4.4c2.5-.6,5.3-1.3,8-1.8,0-.9,0-1.8,0-2.6Z"/>
    <path class="st0" d="M1026.5,729.8c0,0-.1,0-.2,0-5.2-.7-22.9-3.2-35.3-6.1-.6-.1-1.1-.3-1.7-.4l-1.2-.3c-.6-.1-1.1-.3-1.6-.4-1.7-.5-3.1-.9-4.2-1.3,0,0,0,0-.1,0-.6-.2-1.1-.4-1.6-.6-.2,0-.4-.2-.6-.3-.7-.3-1.2-.6-1.7-.9,0,0,0,0,0,0,0,0-.1,0-.2,0-.2,0-.4-.1-.7-.2l-.8-.2c-.2,0-.3,0-.5-.1-2.2-.6-4.3-1.2-6.4-1.6,0,0,0,0-.1,0-3.5-.8-6.6-1.3-9.2-1.5,0,0-.7,0-1.6-.1,0,0,0,0,0,0-1,0-2.1-.2-3.2-.4-6.4-1.2-7.4-3.8-7-5.7,0-.4.2-.7.3-1l-.7-4.9c-.6-1-1.8-3.3-1-5.8.5-1.6,1.8-2.8,3.7-3.6.2-1.4,1.5-2.5,3-2.5s.9.1,1.4.3c13.3,6.6,15.3,8.7,15.8,9.5.6.6,2.6,2.9,3.1,5.2,0,0,0,0,0,.1,0,.1,0,.3,0,.3,0,.1,0,.2,0,.3s0,0,0,0c0,.1,0,.2,0,.4,0,0,0,.2,0,.3.6,1.1,1.6,2.4,2.6,3.5,0,0,0,0,0,0h0c.4.4.7.8,1,1,.5.5.8,1.1.9,1.9,0,.4.2.7.5,1.1,0,0,0,0,0,0,0,0,0,0,.1.2,0,0,0,0,0,0,.1.2.3.3.6.5,3.4,2.2,11.2,1.1,14.2.4.2,0,.4-.1.6-.1,6.3-.9,15.3-1.8,21.8-2.4,8.6-.8,16-1.3,16.8-1.4,0,0,0,0,.1,0h.2c1.9,0,3.6-.1,5.1-.5,1.2-.3,2.4-.7,3.4-1.2.7-.3,1.5-.1,1.9.5.4.6.3,1.5-.2,2-3.8,3.4-7.8,7.2-12,11.3-1.4,1.4-2.9,2.9-4.2,4.3-.3.3-.7.5-1.1.5ZM990.3,720.4c.4.1.9.2,1.4.3,11.8,2.8,28.4,5.2,34.3,6,1.2-1.2,2.5-2.5,3.8-3.8,2.5-2.5,5-4.9,7.5-7.2-1.1.1-2.3.2-3.6.2h-.2c-1,0-8.3.6-16.7,1.4-6.5.6-15.5,1.4-21.7,2.4h0s0,0-.1,0c-.2,0-2,.5-4.5.7ZM982.6,721.3h0,0ZM982.6,721.3h0,0ZM995.3,719.5s0,0,0,0c0,0,0,0,0,0ZM968.7,716.7h0ZM970.3,714.2c1.7.4,3.5.8,5.4,1.4,0-.2,0-.4-.1-.6,0-.1,0-.2-.1-.3-.3-.3-.7-.7-1-1.1,0,0,0,0,0,0-1.1-1.3-2.2-2.7-3-4.1-.4-.7-.5-1.4-.4-2.1,0,0,0-.2,0-.3-.3-1.4-1.8-3.2-2.4-3.8-.1-.1-.2-.2-.3-.4-.6-.8-5.4-3.8-14.6-8.3,0,0,0,0,0,0,0,1-.8,1.8-1.8,2.3-1.2.5-1.8,1.1-2.1,1.8-.4,1.3.6,3,.8,3.3.1.2.3.6.4,1.1l.8,5.1c0,.5,0,1-.2,1.5,0,.1-.1.3-.1.4,0,.5,1.3,1.5,4.7,2.1.9.2,1.9.3,2.8.4,0,0,0,0,.1,0,.9,0,1.5.1,1.5.1,2.8.2,6,.7,9.6,1.6.1,0,.2,0,.4,0ZM950.5,694.2s0,0,0,0c0,0,0,0,0,0Z"/>
    <path class="st0" d="M1084.2,836.2c-.2,0-.5,0-.7-.2l-161.9-86c-.5-.3-.8-.8-.8-1.3s0-.1,0-.2c.1-1.2.9-2.4,2-3l36.1-19.9,16.6-9.6c.4-.2.8-.3,1.2-.1.2,0,.3,0,.4.1l1,.3c.3.1.6.2.8.2,0,0,.1,0,.2,0,0,0,0,0,.1,0,.2,0,.3.2.5.3,0,0,0,0,0,0,.3.2.8.5,1.3.7.2,0,.3.1.4.2.5.2,1,.4,1.5.6,0,0,0,0,.1,0,0,0,0,0,0,0,1.1.4,2.5.8,4,1.2.5.1,1,.3,1.6.4l1.2.3c.5.1,1.1.3,1.6.4,12.3,2.9,29.9,5.4,35,6.1.6,0,1,.5,1.2,1,.2.5,0,1.1-.3,1.5-10.6,10.8-18.9,20.2-20.5,22.1,0,0-.1.1-.2.2-3,4-3.4,7.9-1.2,11.7.2.3.2.6.2,1-.2,1.3,0,2.4.4,3.8.3,1.2.6,2.6.6,4.3,0,0,0,.2,0,.3.3.7,2.1,3.1,15.5,4.9.3,0,.5.1.7.3l52.9,39c.7.5,1.2,1.2,1.4,2.1.5,1.7,2.3,5.8,8.3,15,.4.6.3,1.3-.2,1.8-.3.3-.7.5-1.1.5ZM924.4,748.1l155.6,82.7c-3.1-5.2-5-8.9-5.6-11.1,0-.2-.1-.3-.3-.4l-52.6-38.8c-11-1.5-16.4-3.5-17.6-6.8-.2-.4-.2-.9-.2-1.4,0-1.4-.2-2.4-.5-3.6-.3-1.3-.6-2.7-.5-4.4-1.8-3.4-2.8-8.7,1.8-14.7,0,0,0-.1.1-.2,0,0,0,0,0,0,1.5-1.7,8.8-10,18.6-20.1-7.2-1-21.7-3.2-32.4-5.7-.6-.1-1.1-.3-1.7-.4l-1.2-.3c-.6-.1-1.1-.3-1.6-.4-1.6-.4-3-.8-4.2-1.3,0,0,0,0-.1,0-.6-.2-1.2-.4-1.7-.7-.1,0-.3-.1-.5-.2-.7-.3-1.2-.6-1.7-.9,0,0,0,0,0,0,0,0-.1,0-.2,0-.2,0-.4-.1-.7-.2l-.7-.2-16.6,9.6-35.6,19.6ZM1004.6,749.6h0ZM1004.8,749.5s0,0,0,0c0,0,0,0,0,0ZM982.6,721.3h0,0ZM982.6,721.3h0,0ZM979.4,716.7s0,0,0,0c0,0,0,0,0,0Z"/>
    <g id="Livello_14">
      <path class="st0" d="M903.9,694.1c-.2,0-.4,0-.5,0-.4-.2-.8-.5-.9-.9-.2-.7-.4-1.6-.5-2.5,0-.8.5-1.5,1.4-1.6.8,0,1.5.5,1.6,1.3,0,.6.2,1.1.4,1.7.3.7,0,1.5-.6,1.9h-.1c-.2.2-.5.3-.8.3Z"/>
    </g>
  </g>
  <g id="cristiano">
    <g>
      <path class="st0" d="M1034.3,704c-1.9,0-4.5-.8-7.9-2.4-.3-.1-.4-.1-.6-.1-1.2,0-3.7.4-7.2,1.1-.4,0-.9,0-1.2-.3-.3-.3-.5-.7-.5-1.2,0-1.8,0-3.5,0-5.1v-.5c0-.3,0-.6,0-.9,0-1.3,0-2.8.2-4.2,0-.7.5-1.2,1.1-1.3.6-.2,1.3.1,1.6.7.7,1.1,1.4,2.1,1.9,2.9.1.1.2.3.3.4.1.2.3.4.4.5,6.4,8,12.1,7.4,12.7,7.3.7-.1,1.4.3,1.6,1,.2.7,0,1.4-.7,1.8-.5.3-1.1.4-1.9.4ZM1019.9,694.9c0,.2,0,.4,0,.5v.6c0,1,0,2,0,3.2,1.3-.2,2.5-.4,3.5-.6-1-.9-2-2-3.1-3.3-.1-.1-.2-.3-.3-.4Z"/>
      <path class="st0" d="M1022.1,780.6c0,0-.1,0-.2,0-11.2-1.5-16.7-3.6-17.9-6.8-.2-.4-.2-.9-.2-1.4,0-1.4-.2-2.4-.5-3.6-.3-1.5-.7-3-.4-4.9.1-.6.6-1.1,1.2-1.2.6-.1,1.3.2,1.6.7,2.1,3.7,5.9,6.2,6.5,6.5.2,0,.3.2.5.3l10.4,7.7c.6.4.8,1.1.5,1.8-.2.6-.8.9-1.4.9ZM1006.4,769.2c.2,1,.4,2,.3,3.3,0,0,0,.2,0,.3.2.6,1.5,2.3,9.4,3.9l-5.5-4.1s0,0,.1,0c0,0-.1,0-.2,0-.3-.2-2.2-1.4-4.2-3.3ZM1011,772.7s0,0,0,0c0,0,0,0,0,0Z"/>
      <path class="st0" d="M1115.4,817.4c-2.9,0-5.4-1.7-6.2-4.1-2.2-6.8-6.6-19.1-11.1-24.2-.3-.4-.7-.8-.9-1.4-.4-.8-4.8-8.4-33-5.3,0,0-.1,0-.2,0h-.2c-.3,0-.7,0-1.5,0-.6,0-1.3,0-2.2,0-.4,0-.8-.1-1-.4-1.7-1.6-3-2.7-3.7-3.3-.4-.4-.7-.8-1-1.3-3.9-8.6-12.5-14.8-17.3-17.7-1.2-.8-1.9-2-1.8-3.4,0-1.4,1-2.8,2.5-3.4,5.7-2.6,13.3-7,21.9-12.8,6.6-4.4,17.6-12.1,32.2-23.7l.3-.2c.6-.5,1.3-.8,2.1-.9,8.2-1.4,14.1-4.3,17.6-8.5.1-.2.3-.3.4-.4h0c0-.2.2-.3.3-.5.3-.5,1-.8,1.6-.7.6.1,1.1.6,1.2,1.3v.2c0,0,0,.2,0,.3,0,.1,0,.4,0,.6,0,.3,0,.6,0,1,0,0,0,.1,0,.2-1.5,7.7-6.8,18.1-23.7,24.1-.5.2-.9.4-1.2.6-7,5.5-13.9,10.4-20,14.4,0,0,0,0-.2,0-3.4,2.3-6.8,4.3-9.9,6-1.2.7-1.9,1.8-1.8,3,.1,1.1.9,2,2.2,2.3,6.7,1.9,18.7,4.7,37.5,6.9.4,0,.8,0,1.3,0,.5,0,2.5-.4,5.3-.6,4.6-.3,10.8.1,14.2,3.5,1.7,1.7,2.5,4,2.4,6.7-.1,2.3-.9,4.9-2.4,8-.2.5-.3.9-.3,1.4.2,3.6.9,6.6,1.6,7.6.6.7,1,1.5,1.2,2.6.8,4.6,2,12.9.6,17.7-.5,1.6-1.7,3-3.5,3.8-1,.5-2.1.7-3.2.7ZM1076.6,778.6c17.5,0,22.2,5.2,23.4,7.8.1.2.3.5.5.7,4.8,5.6,9.4,18.2,11.7,25.3.4,1.2,1.8,2,3.3,2s1.3-.1,1.9-.4c1-.5,1.7-1.2,1.9-1.9,0,0,0,0,0,0,1.3-4.3,0-12.8-.7-16.3-.1-.5-.3-.9-.5-1.2-1.7-2-2.2-6.7-2.3-9.3,0-.9.1-1.9.6-2.9,1.3-2.7,2.1-5,2.1-6.9.1-1.9-.4-3.3-1.5-4.4-2-2-6.2-2.9-11.9-2.6-2.1.1-4,.4-5,.5-.8.1-1.5.1-2.2,0-19-2.2-31.2-5-38-7-2.4-.7-4.1-2.6-4.4-4.9-.3-2.4,1-4.7,3.3-5.9,3.1-1.7,6.5-3.7,9.9-6,0,0,.1,0,.2,0,6-3.9,12.8-8.8,19.7-14.2.6-.5,1.3-.8,2.1-1.1,13.1-4.6,18.6-12.1,20.8-18.5-3.9,3.3-9.5,5.6-16.6,6.8-.3,0-.6.2-.7.3l-.3.2c-14.7,11.6-25.7,19.4-32.3,23.9-8.8,6-16.4,10.4-22.3,13.1-.5.2-.7.6-.7.9,0,.3.1.5.4.7,5.1,3.1,14.2,9.7,18.4,19,0,0,0,.2.2.2.6.5,1.8,1.6,3.3,3,.6,0,1.2,0,1.6,0,.7,0,1.1,0,1.4,0,0,0,.2,0,.2,0,4.8-.5,9-.7,12.6-.7ZM1112.3,706.3h0s0,0,0,0ZM1112.4,706.1s0,0,0,0c0,0,0,0,0,0ZM1112.6,705.7s0,0,0,0t0,0Z"/>
      <path class="st0" d="M957.2,664.7c-.5,0-1-.2-1.2-.7-.4-.6-.3-1.5.3-2,2.1-1.7,4.6-3.1,7.4-4.1.7-.3,1.5,0,1.9.8.3.7,0,1.5-.6,1.9l-6.9,3.8c-.2.1-.5.2-.7.2Z"/>
      <path class="st0" d="M1047.5,709.9c-.4,0-.7-.1-1-.4-.6-.5-.7-1.3-.3-2,.4-.5.6-1,.7-1.5,0,0,0,0,0,0,0-.1,0-.2,0-.3l-1.5-9.2c-.2-1.2.2-2.4,1.1-3.3,1.1-1,2.6-1.5,4.1-1.3,9.9,1.7,19.7-.8,20.8-1.1.8-.2,1.6.3,1.8,1s-.2,1.6-1,1.8c-5.6,1.6-13.6,6.9-23.9,15.7-.3.2-.6.4-1,.4ZM1050,695c-.5,0-.9.2-1.2.5-.2.2-.3.4-.3.7l1.4,8.3c4.6-3.8,8.7-6.8,12.3-9-3.6.3-7.7.3-11.9-.4-.1,0-.2,0-.3,0Z"/>
    </g>
  </g>
  <g id="lampada">
    <path class="st0" d="M1257.8,496.3h0c-12.1,0-20.9-8.9-21.3-9.2-.3-.3-.4-.7-.4-1.1v-47.3c0-.4.2-.8.5-1.1.3-.3.7-.4,1.1-.4h.6c.4,0,.7.2,1,.5,14.1,14.4,33.9,3.3,36.1,2,.3-.2.6-.2.9-.2h.6c.8.1,1.4.8,1.4,1.5v44.9c0,.4-.2.8-.4,1.1-6.1,6.1-12.8,9.2-19.9,9.2ZM1239.1,485.3c1.8,1.7,9.3,7.9,18.8,7.9h0c6.2,0,12-2.7,17.4-7.9v-42.2c-5.6,2.9-22.6,10-36.1-1.6v43.8Z"/>
    <path class="st0" d="M1256.7,448c-6.4,0-13.5-2-19.6-8.2,0,0,0,0,0,0-.1-.1-.3-.3-.3-.5-.2-.4-4-10.6,2.6-19.5.5-.6,1.4-.8,2-.4,0,0,.1.1.2.2,0,0,0,0,0,0,0,0,.1,0,.2.1,0,0,.1.1.2.2.2.1.3.3.6.4,1.2.8,3,1.9,5.5,2.9.8.3,1.7.6,2.7,1,2.8.9,5.6,1.3,8.4,1.2.3,0,.5,0,.8,0,.4,0,.9,0,1.3-.1.4,0,.8,0,1.3-.2.9-.1,1.7-.3,2.5-.5.3,0,.6-.2.9-.3,0,0,0,0,.1,0,4.5-1.4,7.1-3.6,7.2-3.7.1-.1.3-.2.5-.3.6-.3,1.4-.1,1.8.4.3.4,7.2,9.2,2.4,20.7-.1.3-.3.5-.5.6,0,0-.3.2-.6.3-1.6,1-10.2,5.7-20.1,5.7ZM1239.5,437.9c14,14,33.4,3.3,35.9,1.9,2.9-7.5,0-13.5-1.4-16-1.4,1-3.7,2.4-7,3.4-.3.1-.7.2-1.1.3-1,.3-1.9.5-2.9.6-.5,0-1,.2-1.5.2-.4,0-.9,0-1.3.1-.3,0-.7,0-1,0-3,0-6.2-.4-9.2-1.3-1.1-.3-2-.7-2.9-1-2.7-1.1-4.8-2.4-6.1-3.2,0,0,0,0,0,0-4,6.5-1.9,13.7-1.4,15.1ZM1276.5,440.8h0,0ZM1273.4,420.3s0,0,0,0c0,0,0,0,0,0ZM1273.4,420.3s0,0,0,0c0,0,0,0,0,0ZM1273.4,420.3s0,0,0,0c0,0,0,0,0,0ZM1273.4,420.3s0,0,0,0c0,0,0,0,0,0ZM1273.4,420.3s0,0,0,0t0,0ZM1273.8,420.1s0,0,0,0t0,0Z"/>
    <path class="st0" d="M1266.4,427.1c-.6,0-1.2-.4-1.4-1-.2-.8.2-1.6,1-1.9,2.6-.8,5-2.1,7.3-3.8.6-.5,1.5-.4,2.1.2.5.6.4,1.5-.2,2.1-.1.1-3.1,2.8-8.3,4.4-.1,0-.3,0-.4,0Z"/>
    <path class="st0" d="M1260.9,414.7c-.1,0-.2,0-.3,0-2.4-.6-4.8-.6-7.3-.1-.4,0-.9,0-1.2-.3s-.5-.7-.5-1.2l.4-260.5c0-.5.3-1,.8-1.3.5-.3,1-.3,1.5,0l7.9,4.6c.5.3.7.8.7,1.3l-.4,256c0,.5-.2.9-.6,1.2-.3.2-.6.3-.9.3ZM1256.7,411.2c.9,0,1.8,0,2.7.2l.4-253.4-4.9-2.8-.4,256.1c.7,0,1.4-.1,2.2-.1Z"/>
    <path class="st0" d="M1259,428.3c-.4,0-.9,0-1.3,0-.2,0-.5,0-.8,0-.5,0-.8,0-1.2-.1-.3,0-.7,0-1.1-.2h-.3c-.2,0-.4-.1-.6-.2-.3,0-.6-.1-.9-.2-.1,0-.2,0-.3,0s0,0-.1,0c0,0,0,0,0,0h-.2c0,0-.2,0-.3-.1h-.5c-.3-.2-.6-.3-.9-.4,0,0,0,0-.1,0-.1,0-.2,0-.3,0-.2,0-.5-.2-.8-.3-.1,0-.3-.1-.6-.2-.2,0-.4-.1-.6-.2h-.1c-.3-.2-.6-.3-.9-.4-.5-.2-1-.4-1.6-.7-.2,0-.4-.2-.6-.3l-1-.5s0,0,0,0c0,0,0,0-.1,0-.7-.4-1.5-.8-2.3-1.3l-.4-.2c-.3-.2-.5-.3-.8-.5,0,0,0,0,0,0h-.2c0-.2-.1-.2-.2-.2,0,0,0,0-.2-.1-.3-.2-.5-.6-.6-1,0-.4,0-.9.3-1.2.2-.3,5.3-6.4,13.3-8.1,2.9-.6,5.7-.5,8.5.1,4.8,1.1,9.6,4.1,14.1,8.8.3.3.5.8.4,1.2,0,.4-.3.8-.6,1.1,0,0-.1,0-.2.1-2.5,1.8-5.2,3.2-8,4.2-.3.1-.7.2-1.1.3-.6.1-1.1.3-1.6.4-1.8.3-3.5.5-5.2.5ZM1253.2,424.6c0,0,.1,0,.2,0,.3,0,.5.1.8.2.2,0,.4,0,.6.1h.3c.3.1.7.1,1,.2.4,0,.7,0,1,.1.3,0,.5,0,.7,0,1.9,0,3.8,0,5.8-.4.5-.1,1-.2,1.5-.3.2,0,.5-.1.8-.3,2.2-.7,4.2-1.7,6.1-2.9-3.7-3.6-7.6-5.8-11.4-6.7-2.4-.5-4.8-.6-7.3-.1-4.9,1-8.6,4.1-10.4,5.8h.2c.7.5,1.3.9,2,1.2,0,0,.1,0,.2,0l.9.4c.2.1.4.2.6.3.5.2,1,.5,1.5.6.3.1.6.2.8.3h.1c.1,0,.3.1.4.2h.1c.2.1.4.2.6.2.2,0,.4.2.6.2,0,0,.1,0,.2,0,0,0,.1,0,.2,0,.3,0,.6.2.8.2l.7.2c0,0,.2,0,.3,0s.1,0,.2,0h0s0,0,0,0ZM1244,424.4s0,0,0,0t0,0ZM1273.8,420.1s0,0,0,0t0,0Z"/>
    <path class="st0" d="M1266.4,427.1c-.6,0-1.2-.4-1.4-1-.2-.8.2-1.6,1-1.9,2.6-.8,5-2.1,7.3-3.8.6-.5,1.5-.4,2.1.2.5.6.4,1.5-.2,2.1-.1.1-3.1,2.8-8.3,4.4-.1,0-.3,0-.4,0Z"/>
  </g>
  <metadata>
    <sfw xmlns="http://ns.adobe.com/SaveForWeb/1.0/">
      <slices/>
      <sliceSourceBounds x="392.3" y="6.24" width="1215.4" height="1402.96" bottomLeftOrigin="true"/>
    </sfw>
  </metadata>
</svg>